<svg width="104" height="104" viewBox="0 0 104 104" fill="none" xmlns="http://www.w3.org/2000/svg">
<path fill-rule="evenodd" clip-rule="evenodd" d="M48.0937 43.3027L51.9827 45.6163L55.8716 43.3027V48.6531H61.1307L58.8849 52.5798L61.1307 56.5123H55.8716V61.7995L51.9827 59.5491L48.0937 61.7995V56.5123H42.8232L45.0804 52.5798L42.8232 48.6531H48.0937V43.3027Z" fill="#78C887"/>
<path d="M81.7585 38.5321L82.924 38.0614L82.3384 36.896L81.1729 37.3668L81.7585 38.5321ZM83.9644 40.1396L83.43 39.0718L82.2645 39.5425L82.8501 40.7079L81.8892 41.1959L81.2695 39.9616L79.2625 40.7883L78.7565 39.7779L80.7635 38.9512L80.1779 37.7858L78.1709 38.6125L77.6592 37.5964L79.6662 36.7697L79.1659 35.7708L80.1267 35.2829L80.6611 36.3506L81.8267 35.8799L81.2411 34.7145L82.2019 34.2265L82.8217 35.4608L84.8287 34.6341L85.3404 35.6503L83.3334 36.4769L83.919 37.6423L85.926 36.8156L86.432 37.826L84.425 38.6527L84.9253 39.6516L83.9644 40.1396Z" fill="#78C887"/>
<path d="M33.2148 79.9576L32.4359 80.9508L33.5161 81.6741L34.295 80.6809L33.2148 79.9576ZM30.5085 79.6706L31.4978 80.3308L32.2767 79.3376L31.1964 78.6143L31.7877 77.7072L32.9305 78.4708L34.2666 76.7485L35.199 77.3743L33.8629 79.0965L34.9432 79.8198L36.2793 78.0976L37.2231 78.7291L35.887 80.4513L36.8137 81.0656L36.2224 81.9726L35.2332 81.3124L34.4542 82.3056L35.5345 83.0289L34.9432 83.936L33.8004 83.1725L32.4643 84.8947L31.5205 84.2632L32.8566 82.541L31.7763 81.8176L30.4402 83.5399L29.5078 82.9141L30.8439 81.1919L29.9172 80.5776L30.5085 79.6706Z" fill="#78C887"/>
<path d="M67.3506 78.1894L69.5338 81.6339L68.2546 82.4606L69.0904 83.781L73.1669 81.146L72.3311 79.8256L71.0405 80.658L68.8573 77.2135L67.3506 78.1837V78.1894ZM70.7221 76.0998L74.7702 80.0093L76.004 78.7061L71.9559 74.7966L70.7221 76.0998ZM75.714 74.2857C75.4809 74.5326 75.1966 74.5441 75.0033 74.3603C74.81 74.1766 74.81 73.8839 75.0431 73.637L76.1006 72.5176L76.7715 73.1663L75.714 74.2857ZM80.3477 74.125L76.2996 70.2155L73.7923 72.8677C72.894 73.815 73.0191 74.9746 73.7582 75.6865C74.503 76.4041 75.606 76.5131 76.5441 75.5257L77.8177 74.1766L79.1197 75.4339L80.3534 74.1307L80.3477 74.125ZM76.3735 69.8022L80.0976 69.4405L81.2802 72.5348L82.3547 70.6461L81.2631 68.0283L83.2019 69.1535L84.0945 67.592L79.2391 64.7675L78.3464 66.329L79.512 67.0064L79.7962 67.7929L77.4652 67.8675L76.3679 69.7964L76.3735 69.8022ZM81.1665 57.8613C80.7173 59.463 81.4735 60.4332 83.1735 61.1623L84.4413 61.7077L84.0434 63.1256L80.1488 62.0119L79.6598 63.7456L85.0497 65.2842L86.3574 60.6284L83.8671 59.5262C82.7414 59.0325 82.4571 58.6593 82.5708 58.2575L81.1665 57.8556V57.8613ZM81.5133 57.2643L87.1135 57.3963L87.1533 55.5937L81.5531 55.4617L81.5133 57.2643ZM83.9922 52.5339C83.9865 52.8726 83.7818 53.0793 83.5146 53.0735C83.2474 53.0678 83.0541 52.8496 83.0654 52.5109L83.0996 50.9667L84.0263 50.9896L83.9922 52.5339ZM87.3069 49.2616L81.7066 49.1296L81.6213 52.798C81.5929 54.1126 82.4571 54.8819 83.4748 54.9048C84.5096 54.9278 85.3908 54.2619 85.4249 52.8898L85.4704 51.0298L87.2671 51.0757L87.3069 49.2731V49.2616ZM85.5671 41.2877L83.4975 41.7699C82.3434 42.0397 81.7634 42.7746 82.1103 44.2844C82.2751 45.0135 82.5935 45.5531 82.8721 45.8516L80.9618 46.2994L81.3598 48.0446L86.8179 46.7702L86.4199 45.025L84.248 45.5301C84.0718 45.3407 83.9069 45.0709 83.7932 44.5772C83.651 43.9514 83.7932 43.5553 84.4641 43.4003L85.9651 43.0501L85.5614 41.2934L85.5671 41.2877Z" fill="#78C887"/>
<path d="M72.4562 30.9084L76.129 30.2826L73.8946 32.4354L75.1284 33.7386L79.1822 29.8348L77.9427 28.5202L74.4404 29.1058L76.5668 27.0621L75.3331 25.7589L71.2793 29.6626L72.4562 30.9084ZM71.0348 29.3698L70.8529 25.5924L73.9685 24.5476L72.1492 23.3707L69.5054 24.3467L70.7164 22.4407L69.2097 21.4648L66.185 26.2296L67.6917 27.2056L68.4194 26.0632L69.2154 25.8106L69.1813 28.17L71.0348 29.3698ZM63.5242 25.1561C64.6442 25.6039 65.5482 25.3685 66.0429 25.0356L65.3606 23.5831C65.0422 23.7955 64.6215 23.8817 64.178 23.7037C63.4901 23.4281 63.1489 22.7278 63.4616 21.9298C63.7743 21.1318 64.4907 20.8677 65.1787 21.1376C65.6222 21.3155 65.878 21.6428 65.9633 22.0274L67.4358 21.4418C67.3051 20.8505 66.7991 20.0698 65.679 19.622C64.0473 18.9733 62.3928 19.599 61.7503 21.2466C61.1021 22.9057 61.8867 24.5017 63.5185 25.1504L63.5242 25.1561ZM59.0155 23.5028L59.9252 19.5187L61.4035 19.8631L61.7503 18.3361L57.037 17.2396L56.6845 18.7666L58.1741 19.1168L57.2644 23.1009L59.0042 23.5085L59.0155 23.5028ZM52.5227 21.2065C52.1417 21.195 51.6812 20.9596 51.4708 20.6611L51.5163 18.9388C51.7437 18.6403 52.2156 18.4394 52.5966 18.4509C53.2902 18.4681 53.8133 19.0077 53.7905 19.8516C53.7678 20.707 53.222 21.2179 52.5283 21.2007L52.5227 21.2065ZM53.0742 22.8139C54.4785 22.8483 55.5587 21.8207 55.6099 19.9033C55.6554 17.9916 54.6263 16.9123 53.2277 16.8779C52.5909 16.8607 52.0053 17.1018 51.5504 17.6299L51.5675 16.9755L49.7822 16.9296L49.5889 24.7428L51.3742 24.7887L51.4424 21.9642C51.8916 22.5383 52.4544 22.7967 53.0798 22.8139H53.0742ZM44.1308 25.8278C44.3241 25.8507 44.7391 25.8106 44.8983 25.7819C45.9445 25.5694 46.7291 25.1561 46.9679 23.8989L48.3324 17.0846L46.4732 17.4175L45.8421 21.172L43.9716 17.8653L42.1238 18.1983L45.3191 23.4511L45.2452 23.7726C45.194 24.0194 44.9552 24.1457 44.5572 24.2204C44.4208 24.2433 44.2445 24.2433 44.1024 24.1974L44.1308 25.822V25.8278ZM42.8061 23.9161L40.4977 18.7609L38.3543 19.7426L38.5362 23.0148L36.2222 20.7185L34.0787 21.7002L36.3871 26.8554L38.0131 26.1148L36.6316 23.032L39.1844 25.5809L40.0201 25.202L39.8098 21.5796L41.1914 24.6624L42.8117 23.9218L42.8061 23.9161ZM30.3661 26.4593L31.5146 25.5465L33.0553 27.5271L31.3611 28.8761C31.4009 28.4571 31.2815 27.9978 30.9858 27.5041L30.3661 26.4593ZM31.5714 32.5388L32.9757 31.425L32.0945 30.2941L34.5052 28.3824L35.3864 29.5134L36.7907 28.3997L34.9486 26.0345L34.4654 26.4191L31.9637 23.2042L28.1942 26.1952L29.5644 28.5661C30.1898 29.6339 30.0761 29.9439 29.7691 30.2367L31.5657 32.5502L31.5714 32.5388ZM29.0129 37.2118C29.1721 37.1027 29.4564 36.7927 29.5587 36.6606C30.2012 35.7995 30.5139 34.9614 29.8601 33.8649L26.3862 27.86L25.215 29.3641L27.2163 32.5904L23.6458 31.3791L22.4859 32.8717L28.3307 34.6514L28.4899 34.9384C28.6149 35.1566 28.5183 35.4091 28.2681 35.7306C28.1828 35.8397 28.0464 35.9603 27.9156 36.0177L29.0072 37.2118H29.0129ZM24.2371 38.4116C23.8846 39.112 23.1398 39.2153 22.4689 38.8651C21.8093 38.5206 21.4568 37.8547 21.8093 37.1543C22.1675 36.4425 22.918 36.3334 23.5775 36.6721C24.2484 37.0166 24.5953 37.6997 24.2371 38.4058V38.4116ZM25.6414 39.1407C26.517 37.4069 25.8176 35.7593 24.4133 35.0303C23.009 34.3012 21.2806 34.703 20.405 36.431C19.5351 38.1418 20.2231 39.8008 21.6274 40.5242C23.0317 41.2533 24.7715 40.8457 25.6414 39.1407ZM23.8504 42.4933L18.3923 41.2188L17.1358 46.707L22.5939 47.9815L22.9976 46.2248L19.0518 45.3063L19.501 43.3314L23.4468 44.25L23.8504 42.4933ZM20.8996 51.7474C20.8826 52.5339 20.2572 52.9472 19.501 52.93C18.7562 52.9128 18.1535 52.4593 18.1763 51.6785C18.199 50.8806 18.8244 50.45 19.5635 50.473C20.3197 50.4902 20.9224 50.9552 20.8996 51.7474ZM22.4745 51.7876C22.5257 49.8415 21.1839 48.6589 19.6033 48.6187C18.0284 48.5785 16.6412 49.6922 16.59 51.6383C16.5445 53.5615 17.8693 54.7556 19.4498 54.7958C21.0247 54.836 22.4234 53.7108 22.4745 51.7933V51.7876ZM22.5598 56.6213L18.5743 57.3389L18.307 55.8291L16.7776 56.1047L17.6305 60.9154L19.1599 60.6399L18.8927 59.1186L22.8782 58.401L22.5655 56.6271L22.5598 56.6213ZM24.0267 62.1899C23.6401 61.036 22.8839 60.4906 22.3097 60.3241L21.6501 61.788C22.0197 61.8971 22.3551 62.1669 22.503 62.6205C22.7418 63.3323 22.4291 64.0442 21.6274 64.3197C20.8257 64.5953 20.1605 64.2164 19.9217 63.5045C19.7682 63.051 19.8535 62.6377 20.0866 62.3219L18.6937 61.5641C18.3298 62.0464 18.0626 62.9419 18.4492 64.0958C19.012 65.7721 20.5528 66.6447 22.213 66.0764C23.8846 65.5081 24.5839 63.8662 24.021 62.1956L24.0267 62.1899ZM27.2447 69.1305L23.5207 69.0386L26.119 67.3566L25.1524 65.8353L20.4334 68.8894L21.4057 70.4164L24.9534 70.514L22.4802 72.1157L23.4468 73.637L28.1658 70.5829L27.2447 69.1305ZM28.6036 79.4352L30.1387 77.9541C30.9972 77.1274 31.1223 76.1974 30.0647 75.0779C29.5531 74.5326 29.0072 74.2341 28.6206 74.125L30.042 72.7587L28.8196 71.4613L24.7658 75.365L25.9882 76.6624L27.6029 75.1124C27.8474 75.187 28.1317 75.3305 28.4728 75.698C28.9106 76.163 28.9845 76.582 28.4899 77.0585L27.3755 78.132L28.6092 79.4352H28.6036Z" fill="#78C887"/>
<path d="M69.0905 35.8684C69.4942 35.8684 69.8751 35.9775 70.1992 36.1727C70.5347 36.3736 70.8189 36.6664 71.0293 37.0223L76.2202 46.0468C76.6068 46.7242 76.8058 47.4763 76.8058 48.2226C76.8058 48.9689 76.6125 49.698 76.2202 50.3696C74.9466 52.5396 73.8721 54.371 72.6156 56.5524L74.1109 57.425C74.2189 57.4767 74.3099 57.5571 74.3724 57.6604C74.4349 57.758 74.4691 57.8786 74.4691 57.9991C74.4691 58.1139 74.4406 58.223 74.3838 58.3206C74.3212 58.4297 74.2303 58.5158 74.1279 58.5675C74.0199 58.6249 73.9005 58.6478 73.7811 58.6364H68.5561V69.8998C68.5561 70.3074 68.4481 70.692 68.2548 71.0192C68.0558 71.3579 67.7658 71.645 67.4133 71.8574L58.4756 77.0987C57.8047 77.4891 57.0599 77.69 56.3208 77.69C55.6613 77.69 55.0018 77.5293 54.3877 77.2078L54.3593 75.7267L54.9563 76.0826C55.2007 76.2261 55.3031 76.2491 55.5476 76.318C55.8091 76.3926 56.0706 76.427 56.3208 76.427C56.588 76.427 56.8496 76.3926 57.0997 76.3237C57.3612 76.2491 57.6171 76.14 57.8502 76.008L65.5257 71.5301L54.166 64.8479L54.1375 63.361L57.9071 65.5827V58.6249H64.9685C64.906 58.6019 64.8434 58.5617 64.7866 58.5158C64.7354 58.4699 64.6842 58.4125 64.6501 58.3493L60.6248 51.3226L59.897 52.597L62.609 57.3447H56.6392V63.3036L52.8754 61.1221C52.8867 61.9143 52.8981 62.9419 52.9095 63.9638C52.9208 65.1694 52.9322 66.3634 52.9493 67.1385C53.1767 66.9318 53.3302 66.7883 53.5121 66.616L53.677 66.461C53.9613 66.197 54.2513 66.1395 54.49 66.2199C54.5981 66.2544 54.6947 66.3175 54.7686 66.3979C54.8482 66.4783 54.9051 66.5816 54.9392 66.6907C55.0302 66.972 54.9733 67.3279 54.6834 67.6436C54.1262 68.2924 53.7509 68.7229 53.2279 69.3372L52.9891 69.6185C53.0061 70.3648 53.0232 71.1283 53.0402 71.9033C53.0914 74.3259 53.1483 76.8289 53.2506 79.1769C53.262 79.395 53.2733 79.596 53.2961 79.7739C53.3188 79.9461 53.3473 80.1069 53.3871 80.2504C53.4325 80.3135 53.478 80.371 53.5292 80.4226C53.859 80.7671 54.2569 80.836 54.6379 80.7671C55.0245 80.6982 55.3884 80.503 55.6272 80.3308C55.7238 80.2619 55.7977 80.1987 55.8489 80.1528C56.1047 79.9059 56.2981 79.7969 56.4402 79.7739C56.5255 79.7624 56.5937 79.7739 56.6449 79.8198C56.696 79.86 56.7302 79.9232 56.7415 80.0035C56.77 80.1585 56.7245 80.3767 56.6164 80.6006C56.5539 80.7269 56.2412 81.2378 55.7068 81.6397C55.4339 81.8463 55.1041 82.03 54.7175 82.1161L54.7686 82.1506C54.8255 82.185 54.8824 82.2137 54.9392 82.2424C55.4509 82.4778 56.2014 82.4319 56.9064 82.1449C57.5489 81.8865 58.1515 81.4215 58.4927 80.7958C58.6746 80.4628 58.8736 80.2963 59.0442 80.2676C59.1295 80.2561 59.2091 80.2676 59.2773 80.3193C59.3398 80.3652 59.391 80.4341 59.4251 80.526C59.5104 80.7613 59.482 81.1574 59.2489 81.6224C59.5104 81.6626 59.7605 81.7315 59.9937 81.8291C60.2495 81.9324 60.4883 82.0645 60.6987 82.231C61 82.4606 61.1478 82.6443 61.1933 82.7763C61.216 82.851 61.2104 82.9084 61.1819 82.96C61.1535 83.006 61.1023 83.0404 61.0398 83.0576C60.9147 83.0863 60.7157 83.0576 60.4997 82.9658C59.1238 82.3745 58.2425 82.9428 57.3783 83.5054C57.2703 83.5743 57.1679 83.6432 57.0542 83.7121C56.9519 83.7752 56.8439 83.8326 56.7415 83.8843C56.679 83.913 56.6108 83.9417 56.5482 83.9647C56.9462 84.1713 57.3726 84.3321 57.8161 84.4239C58.2653 84.5158 58.7201 84.5445 59.1693 84.4756C59.6923 84.401 60.0505 84.424 60.2325 84.5101C60.3234 84.5502 60.3746 84.6134 60.3916 84.6823C60.4087 84.7512 60.386 84.8258 60.3234 84.9062C60.1926 85.0669 59.8799 85.2449 59.3796 85.3999C59.0953 85.486 58.7997 85.5491 58.4984 85.5836C58.2141 85.618 57.9184 85.6295 57.6171 85.618C57.6626 85.9682 57.8047 86.3127 58.0606 86.6169C58.3107 86.9212 58.6746 87.1853 59.1408 87.3805C59.4876 87.524 59.6923 87.6847 59.7662 87.8282C59.806 87.9029 59.8174 87.9718 59.7947 88.0349C59.7776 88.098 59.7264 88.1497 59.6582 88.1899C59.5161 88.2703 59.2602 88.2932 58.9134 88.2301C58.18 88.0923 57.5716 87.7536 57.1111 87.2714C56.6335 86.7719 56.3151 86.1232 56.173 85.3884C55.468 85.1932 54.8028 84.8775 54.2342 84.4469C53.7339 84.068 53.3188 83.603 53.0289 83.0519C53.0061 83.1208 52.9891 83.1839 52.9834 83.2528C52.9663 83.3619 52.9663 83.471 52.9834 83.5743C53.0118 83.7752 53.0687 83.9589 53.1824 84.1369C53.2961 84.3206 53.461 84.4986 53.7111 84.6938C54.0182 84.9349 54.3593 85.2047 54.6777 85.5147C55.0017 85.8247 55.3031 86.1691 55.5305 86.5423C55.7977 86.9786 55.9399 87.4379 55.9285 87.9201C55.9171 88.4023 55.7466 88.9018 55.3827 89.4242C55.1609 89.7399 54.9335 89.8892 54.7573 89.9121C54.672 89.9236 54.5924 89.9064 54.5299 89.8605C54.4673 89.8203 54.4218 89.7571 54.3934 89.671C54.3309 89.4816 54.3707 89.1888 54.564 88.8386C54.763 88.4827 54.763 88.1497 54.6322 87.834C54.5071 87.5182 54.2513 87.2197 53.9442 86.9441C53.5064 87.0532 53.2108 87.2254 53.0345 87.4493C52.8526 87.679 52.7844 87.9603 52.8071 88.2875C52.8299 88.6549 52.7673 88.9247 52.6593 89.0625C52.6081 89.1256 52.5513 89.1658 52.4887 89.1773C52.4205 89.1888 52.3523 89.1716 52.2897 89.1199C52.159 89.0223 52.0339 88.7927 51.9429 88.4138C51.8406 87.966 51.852 87.501 51.96 87.0704C52.0623 86.6571 52.2613 86.2725 52.5342 85.9453C52.2443 85.7443 52.0112 85.5262 51.8235 85.2908C51.6473 85.0612 51.5108 84.8201 51.4085 84.5617C50.9593 85.044 50.4988 85.6927 50.3169 86.4217C50.1747 86.9901 50.1975 87.5986 50.5272 88.2129C50.749 88.4999 50.8513 88.7353 50.8456 88.896C50.8456 88.9764 50.8172 89.0453 50.7717 89.0855C50.7262 89.1314 50.658 89.1543 50.5784 89.1486C50.4192 89.1486 50.1861 89.0395 49.9132 88.8042C49.6971 88.6147 49.5152 88.3966 49.3731 88.1555C49.2366 87.9258 49.1343 87.6732 49.0604 87.4149C48.7874 87.6216 48.5259 87.9201 48.4065 88.3162C48.3042 88.6492 48.2985 89.051 48.4691 89.539C48.6339 89.9351 48.6794 90.1877 48.6453 90.3255C48.6283 90.4058 48.5828 90.4575 48.5202 90.4805C48.4634 90.4977 48.3951 90.492 48.3269 90.4575C48.1564 90.3829 47.9346 90.159 47.7641 89.849C47.2751 88.9649 47.2467 88.2071 47.4286 87.5871C47.7072 86.6514 48.4918 86.0256 48.9637 85.7558C49.1343 84.9062 49.9928 83.936 50.3567 83.4767C49.6232 84.0565 48.4065 85.0899 47.6503 85.3253C47.5309 86.0371 47.1614 86.7834 46.6895 87.2714C46.229 87.7479 45.632 88.0808 44.8985 88.2186C44.5517 88.2817 44.2959 88.2588 44.1537 88.1784C44.0798 88.1382 44.0343 88.0866 44.0173 88.0234C44.0002 87.9603 44.0059 87.8914 44.0457 87.8167C44.1253 87.6732 44.3243 87.5125 44.6711 87.369C45.1089 87.191 45.4443 86.9269 45.6945 86.6284C45.9674 86.3012 46.1323 85.9338 46.2062 85.5836C45.9049 85.5836 45.6092 85.5721 45.3477 85.5434C45.0464 85.5089 44.7735 85.4573 44.5574 85.3884C44.0684 85.2334 43.7614 85.0669 43.6307 84.9119C43.5624 84.8315 43.5397 84.7569 43.5511 84.688C43.5681 84.6191 43.6193 84.556 43.7103 84.5101C43.8922 84.4182 44.2561 84.3723 44.7848 84.4182C45.1942 84.4527 45.6092 84.4125 46.0129 84.3091C46.4279 84.2058 46.8316 84.0508 47.2012 83.8556C47.1728 83.8441 47.1386 83.8269 47.1102 83.8097C47.042 83.7752 46.9738 83.7351 46.9055 83.6949C46.7918 83.626 46.6895 83.5571 46.5815 83.4882C45.7116 82.9256 44.8303 82.3573 43.4601 82.9486C43.244 83.0404 43.045 83.0749 42.92 83.0404C42.8517 83.0232 42.8063 82.9945 42.7778 82.9428C42.7494 82.8969 42.7437 82.8338 42.7665 82.7591C42.8119 82.6271 42.9598 82.4491 43.2611 82.2137C43.4715 82.053 43.7103 81.9152 43.9661 81.8119C44.1992 81.72 44.4494 81.6511 44.7109 81.6052C44.4778 81.1402 44.4494 80.7498 44.5347 80.5087C44.5688 80.4169 44.6199 80.348 44.6825 80.3021C44.7507 80.2561 44.8303 80.2332 44.9156 80.2504C45.0862 80.2791 45.2852 80.4398 45.4728 80.7786C45.8139 81.41 46.4166 81.8693 47.059 82.1276C47.764 82.4147 48.5145 82.4606 49.0262 82.2252C49.0774 82.2023 49.1229 82.1793 49.1741 82.1506C49.2025 82.1334 49.2252 82.1219 49.2537 82.1047C48.8614 82.0128 48.5202 81.8291 48.2473 81.6167C47.7243 81.2148 47.4172 80.7154 47.3547 80.5891C47.2467 80.3652 47.2012 80.1471 47.2296 79.9921C47.241 79.9117 47.2751 79.8543 47.3263 79.8084C47.3774 79.7682 47.4457 79.7452 47.5309 79.7624C47.6731 79.7854 47.8721 79.9002 48.1222 80.1413C48.1905 80.2045 48.2985 80.2963 48.4406 80.3882C48.6965 80.5547 49.0433 80.7211 49.4072 80.7671C49.7654 80.813 50.1349 80.7326 50.4419 80.4111C50.5045 80.3423 50.567 80.2676 50.6239 80.1758C50.658 80.0437 50.6807 79.8945 50.7035 79.7337C50.7205 79.5672 50.7319 79.3835 50.7433 79.1826C50.8115 77.5982 50.8399 75.8472 50.874 74.0504L50.8911 73.1605C50.6978 72.9022 50.5102 72.6496 50.3225 72.397C50.1634 72.1846 50.0042 71.9722 49.754 71.6335C49.6005 71.4326 49.5152 71.1857 49.5152 70.9561C49.5152 70.7437 49.5948 70.5427 49.7767 70.405C49.97 70.2557 50.1747 70.2385 50.3737 70.2959C50.5841 70.359 50.7831 70.5025 50.9593 70.6633L51.0674 64.8536C50.5955 64.4747 50.2031 64.0556 49.8734 63.6136C49.555 63.183 49.3048 62.7238 49.1058 62.2416L47.3035 63.2864V57.3275H41.3166L42.4594 55.3297L41.3906 54.7039L39.1391 58.6019H46.03V65.7262C46.0527 65.6631 46.0925 65.5999 46.1323 65.5483C46.1778 65.4966 46.2346 65.4449 46.2972 65.4105L48.6055 64.0614C48.7078 64.2279 48.8159 64.3944 48.9296 64.5494C49.066 64.7331 49.2082 64.911 49.3674 65.0832L47.2694 66.3003L47.2808 72.2879C47.2808 72.2879 47.2922 72.265 47.2978 72.2535C47.3831 72.1042 47.5253 72.0009 47.6788 71.955C47.8323 71.9148 48.0028 71.932 48.1564 72.0181C48.1905 72.0353 48.2246 72.0583 48.2587 72.0813C48.7249 72.3568 49.1854 72.6266 49.6403 72.8965L49.6119 74.3431C49.1115 74.0504 48.6055 73.7518 48.0768 73.4418L47.2126 74.9517C47.1614 75.0607 47.0818 75.1526 46.9851 75.2157C46.8885 75.2789 46.7691 75.3133 46.644 75.3191C46.5303 75.3191 46.4223 75.2904 46.3256 75.233C46.2176 75.1698 46.1323 75.078 46.0811 74.9746C46.0243 74.8655 46.0015 74.745 46.0129 74.6244V69.3487H34.8579C34.4542 69.3487 34.0733 69.2396 33.7492 69.0444C33.4137 68.8435 33.1295 68.5507 32.9191 68.1948L27.7282 59.1702C27.3416 58.4928 27.1426 57.7408 27.1426 56.9945C27.1426 56.2482 27.3359 55.5191 27.7282 54.8474C29.0018 52.6774 30.0763 50.8461 31.3328 48.6646L29.8375 47.792C29.7295 47.7403 29.6385 47.66 29.576 47.5624C29.5134 47.4648 29.4793 47.3442 29.4793 47.2179C29.4793 47.1031 29.5078 46.994 29.5646 46.8965C29.6272 46.7874 29.7181 46.7013 29.8205 46.6496C29.9285 46.5922 30.0479 46.5692 30.1673 46.5807H35.398V35.3173C35.398 34.9097 35.506 34.5251 35.6993 34.1978C35.8983 33.8591 36.1883 33.5721 36.5408 33.3597L45.4785 28.1184C46.1494 27.728 46.8942 27.5271 47.6333 27.5271C48.3724 27.5271 49.0945 27.7222 49.7597 28.1184C51.9088 29.4043 53.7225 30.4893 55.883 31.758L56.7472 30.2482C56.7984 30.1391 56.878 30.0473 56.9746 29.9841C57.0713 29.921 57.1907 29.8865 57.3158 29.8808C57.5489 29.8808 57.7706 30.0128 57.8786 30.2252C57.9355 30.3343 57.9582 30.4549 57.9469 30.5754V35.8569H57.981H69.0905V35.8684ZM61.4605 49.8702L62.5635 50.5131L64.815 46.6152H57.9241V39.5023C57.9014 39.5597 57.8673 39.6171 57.8275 39.6688C57.782 39.7205 57.7251 39.7721 57.6626 39.8066L50.7205 43.8596L51.9827 44.5944L56.6619 41.8675V47.8953H62.5976L61.4719 49.8702H61.4605ZM49.2764 43.0214L49.9018 41.9249L46.0413 39.6516V46.6094H38.9685C39.0367 46.6381 39.0993 46.6726 39.1561 46.7185C39.2073 46.7644 39.2585 46.8218 39.2926 46.885L43.2952 53.8715L44.0343 52.5798L41.3508 47.8896H47.2978V41.8618L49.2707 43.0157L49.2764 43.0214ZM51.1242 61.0819L50.4021 61.4953C50.4704 61.6847 50.5784 61.8799 50.6978 62.0636C50.8342 62.2703 50.9878 62.4597 51.1128 62.5975L51.1299 61.0819H51.1242ZM48.5657 44.0892V49.1755H43.5397L45.4898 52.5913L43.5056 56.0702H48.5657V61.1049L51.9714 59.1186L55.3941 61.1106V56.0645H60.4485L58.4642 52.5913L60.4201 49.1755H55.3997V44.0892L51.977 46.0698L48.5714 44.0892H48.5657ZM66.0601 70.3705C66.1909 70.4451 66.3217 70.5025 66.4581 70.537C66.5832 70.5714 66.7026 70.5829 66.8163 70.5714C66.9812 70.5542 67.1006 70.4796 67.1802 70.3763C67.2712 70.2557 67.311 70.0835 67.311 69.8998C67.311 66.5644 67.311 63.2232 67.311 59.8821H59.1806V66.3175L66.0658 70.3648L66.0601 70.3705ZM40.6287 53.5385C40.714 53.3893 40.8561 53.2859 41.0096 53.2458C41.1631 53.2056 41.3337 53.2228 41.4872 53.3089C41.4986 53.3146 41.5099 53.3204 41.5213 53.3319L38.4113 47.8781L32.4813 47.8896C32.4813 47.8896 32.504 47.9011 32.5154 47.9068C32.6632 47.9929 32.7656 48.1365 32.8111 48.2915C32.8509 48.4465 32.8338 48.6244 32.7485 48.7737C32.7315 48.8081 32.7087 48.8426 32.686 48.877C31.3385 51.1963 30.0991 53.3261 28.7459 55.6454C28.6038 55.8923 28.581 56.0013 28.5128 56.2424C28.4389 56.5065 28.4048 56.7706 28.4048 57.0232C28.4048 57.293 28.4389 57.5571 28.5071 57.8097C28.581 58.0738 28.689 58.3263 28.8198 58.5675L33.2545 66.3175L40.623 53.5443L40.6287 53.5385ZM34.403 66.8399C34.3291 66.972 34.2723 67.104 34.2381 67.2418C34.204 67.3681 34.1927 67.4886 34.204 67.6035C34.2211 67.7699 34.295 67.8905 34.3973 67.9709C34.5167 68.0627 34.6873 68.1029 34.8692 68.1029C38.1782 68.1029 41.4815 68.1029 44.7905 68.1029V59.8936H38.417L34.403 66.8457V66.8399ZM51.0787 41.1557C51.2265 41.2418 51.3289 41.3853 51.3687 41.5403C51.4085 41.6953 51.3914 41.8675 51.3061 42.0225C51.3005 42.034 51.2948 42.0455 51.2834 42.057L56.6847 38.9168L56.6733 32.9291C56.6733 32.9291 56.6619 32.9521 56.6562 32.9636C56.571 33.1128 56.4288 33.2162 56.2753 33.2621C56.1218 33.3023 55.9512 33.2851 55.7977 33.1989C55.7636 33.1817 55.7295 33.1588 55.6954 33.1358C53.3984 31.7752 51.2891 30.5237 48.9921 29.1574C48.7476 29.0139 48.6396 28.991 48.4008 28.9221C48.1393 28.8474 47.8778 28.813 47.6276 28.813C47.3604 28.813 47.0988 28.8474 46.8487 28.9163C46.5871 28.991 46.337 29.1 46.0982 29.2321L38.4227 33.7099L51.073 41.1499L51.0787 41.1557ZM37.9053 34.8695C37.7745 34.7949 37.6438 34.7375 37.5073 34.703C37.3822 34.6686 37.2628 34.6571 37.1491 34.6686C36.9843 34.6858 36.8649 34.7604 36.7853 34.8638C36.6943 34.9843 36.6545 35.1566 36.6545 35.3403C36.6545 38.6814 36.6545 42.0168 36.6545 45.3579H44.7848V38.9225L37.8996 34.8695H37.9053ZM63.3311 51.7072C63.2458 51.8565 63.1037 51.9598 62.9501 52C62.7966 52.0402 62.6204 52.023 62.4726 51.9369C62.4612 51.9311 62.4498 51.9254 62.4384 51.9139L65.5484 57.3676L71.4785 57.3562C71.4785 57.3562 71.4557 57.3447 71.4443 57.3389C71.2965 57.2528 71.1942 57.1093 71.1487 56.9543C71.1089 56.7993 71.126 56.6271 71.2112 56.4721C71.2283 56.4376 71.251 56.4032 71.2738 56.3687C72.6213 54.0495 73.8607 51.9196 75.2139 49.6004C75.356 49.3535 75.3787 49.2502 75.447 49.0033C75.5209 48.7392 75.555 48.4752 75.555 48.2226C75.555 47.9528 75.5209 47.6887 75.4527 47.4361C75.3787 47.172 75.2707 46.9137 75.1343 46.6783L70.6995 38.9282L63.3311 51.7015V51.7072ZM69.5567 38.4058C69.6307 38.2738 69.6875 38.1418 69.7216 38.004C69.7557 37.8777 69.7671 37.7571 69.7557 37.6423C69.7387 37.4758 69.6648 37.3553 69.5624 37.2749C69.443 37.183 69.2725 37.1429 69.0905 37.1429C65.7815 37.1429 62.4782 37.1429 59.1693 37.1429V45.3522H65.5427L69.5511 38.4001L69.5567 38.4058Z" fill="#006140"/>
<path fill-rule="evenodd" clip-rule="evenodd" d="M52.0395 99.2179C53.3017 99.2179 54.3251 100.251 54.3251 101.526C54.3251 102.8 53.3017 103.834 52.0395 103.834C50.7773 103.834 49.7539 102.8 49.7539 101.526C49.7539 100.251 50.7773 99.2179 52.0395 99.2179Z" fill="#006140"/>
<path d="M41.4704 96.8872L40.8393 99.1146L39.2473 98.6553C37.7691 98.2305 36.6831 98.9998 36.342 100.194C36.0009 101.394 36.5239 102.634 38.0022 103.059L41.2884 104.006L43.159 97.3751L41.4647 96.8872H41.4704ZM39.054 100.211L40.4242 100.607L40.0206 102.031L38.6503 101.635C38.1955 101.503 37.934 101.147 38.0647 100.693C38.1898 100.246 38.5992 100.085 39.054 100.217V100.211ZM32.4417 93.7355L31.8789 95.1764L34.8979 96.382L34.4715 97.467L31.5207 96.2901L30.9578 97.7311L33.9086 98.9079L33.5163 99.9068L30.4973 98.7013L29.9344 100.142L34.5852 102.002L37.0982 95.5955L32.4474 93.7355H32.4417ZM30.2414 92.4783L27.6033 97.1111L24.789 95.4749L24.0214 96.8183L28.3595 99.3385L31.7651 93.3623L30.2414 92.4783ZM25.4769 89.4471L20.6158 91.0086L23.2141 87.656L21.8211 86.5538L17.6138 91.9788L19.0466 93.1155L23.703 91.6401L21.2241 94.8377L22.6114 95.9342L26.8187 90.5092L25.4826 89.4529L25.4769 89.4471ZM18.9272 83.3676C17.4831 81.8406 15.3623 81.72 13.8557 83.1667C12.3547 84.6134 12.3774 86.7662 13.8159 88.2875C15.26 89.8145 17.3921 89.9408 18.8931 88.4941C20.3941 87.0475 20.3656 84.8889 18.9215 83.3619L18.9272 83.3676ZM17.8014 84.4526C18.586 85.2851 18.461 86.4217 17.6593 87.191C16.852 87.966 15.7262 88.0349 14.9473 87.2082C14.1684 86.3873 14.2878 85.2563 15.0951 84.4756C15.8968 83.7063 17.0282 83.6317 17.8014 84.4526ZM12.5423 74.8311L6.79423 78.5454L7.74371 80.0437L9.89853 78.6487L11.4279 81.0598L9.27312 82.4549L10.2226 83.9532L15.9707 80.2389L15.0212 78.7406L12.7186 80.2274L11.1892 77.8163L13.4918 76.3294L12.5423 74.8311ZM9.32998 67.8733L4.17319 73.0859L5.08288 75.1181L12.3604 74.6417L11.536 72.8046L10.5012 72.9022L9.39252 70.4279L10.1487 69.7103L9.3243 67.8733H9.32998ZM8.19287 71.5072L8.90925 73.1089L6.20862 73.3787L8.19287 71.5072ZM9.53466 67.9422C9.1253 66.4897 8.23836 65.5195 5.49224 65.9616L3.44544 66.2888L2.97354 64.601L8.0621 63.1486L7.58452 61.4378L1.01771 63.3151L2.40499 68.2579L5.84474 67.7068C7.39689 67.4657 7.8688 67.7584 8.04505 68.3785L9.54035 67.9536L9.53466 67.9422ZM0.72775 61.3001L7.49923 60.4389L7.07282 57.0117C6.87951 55.4732 5.75377 54.7613 4.52001 54.9163C3.3033 55.0713 2.38224 56.0415 2.56987 57.58L2.77455 59.2391L0.500328 59.5262L0.722064 61.2886L0.72775 61.3001ZM4.12771 57.6317C4.07085 57.161 4.2869 56.7763 4.74743 56.7189C5.21365 56.6615 5.52066 56.9773 5.58321 57.448L5.75946 58.8717L4.30964 59.0554L4.13339 57.6317H4.12771ZM6.98754 47.6829L0.164881 47.4992L0.119396 49.2731L2.67789 49.342L2.60398 52.2009L0.0454844 52.132L0 53.9059L6.82265 54.0896L6.86814 52.3157L4.13908 52.2411L4.21299 49.3822L6.94205 49.4568L6.98754 47.6829ZM0.375246 45.1225L7.02733 46.6783L7.80057 43.3142C8.14739 41.8044 7.32867 40.7423 6.12333 40.461C4.92937 40.1797 3.72972 40.771 3.3829 42.2809L3.00765 43.9112L0.773234 43.3888L0.375246 45.1225ZM4.82134 42.8607C4.92937 42.3957 5.26482 42.1144 5.71397 42.2235C6.1745 42.3325 6.35075 42.7344 6.24841 43.1994L5.93002 44.6001L4.50295 44.2672L4.82134 42.8664V42.8607ZM8.84102 38.7503L2.18894 37.1945L1.79095 38.9282L8.44304 40.484L8.84102 38.7503ZM9.85305 36.2473L6.99322 31.9819L10.9106 33.5491L11.5644 31.8843L5.21933 29.3469L4.54844 31.0576L7.27181 35.1451L3.53072 33.6525L2.88257 35.3058L9.22764 37.8432L9.85305 36.2473ZM3.60464 30.2023L2.84277 30.6328C3.09862 31.0117 3.15548 31.4595 2.98491 31.9015C2.80297 32.3608 2.4391 32.6249 2.01837 32.7397L2.28559 33.5778C2.95648 33.3884 3.51935 32.9062 3.78657 32.223C4.05948 31.5284 3.9742 30.7993 3.61032 30.208L3.60464 30.2023ZM15.567 25.8795C16.778 24.163 16.4938 22.0331 14.8052 20.8161C13.1109 19.599 11.0243 20.0296 9.81894 21.7461C8.60792 23.4626 8.88651 25.6039 10.5751 26.8209C12.2694 28.038 14.3617 27.6017 15.5727 25.8795H15.567ZM14.2991 24.9667C13.6396 25.9024 12.5082 25.9885 11.6099 25.3398C10.7002 24.6854 10.4216 23.5831 11.0811 22.6531C11.735 21.7289 12.855 21.6313 13.7647 22.2857C14.663 22.9344 14.953 24.0424 14.2991 24.9667ZM22.6114 17.8883L17.8924 12.911L13.3042 17.3486L18.0232 22.3259L19.2967 21.0974L15.6353 17.2396L17.682 15.259L21.3435 19.1168L22.6171 17.8883H22.6114ZM27.4157 14.3003L26.5231 13.0373L23.8793 14.9375L23.2084 13.9846L25.7896 12.1245L24.897 10.8616L22.3158 12.7216L21.696 11.849L24.3398 9.94878L23.4472 8.68581L19.3707 11.6193L23.3335 17.2338L27.41 14.3003H27.4157ZM29.5876 13.0086L28.4448 11.0051L29.8832 10.1669C31.2136 9.39192 31.424 8.06581 30.81 6.99228C30.1902 5.90727 28.9451 5.43079 27.6204 6.20579L24.6582 7.92803L28.0695 13.8984L29.5933 13.0086H29.5876ZM28.9053 8.94414L27.6716 9.66174L26.9381 8.38155L28.1719 7.66395C28.5812 7.42858 29.0133 7.48599 29.2464 7.89358C29.4739 8.29544 29.309 8.70303 28.8996 8.94414H28.9053ZM39.1222 8.71451L34.227 3.24929L32.1688 4.06448L32.2712 11.4299L34.1303 10.6951L34.0848 9.64452L36.5922 8.65136L37.2631 9.44933L39.1222 8.71451ZM35.5801 7.38839L33.9598 8.03136L33.829 5.29875L35.5801 7.39413V7.38839ZM41.9707 8.14044L40.7824 2.93355L42.6359 2.50299L42.2891 0.993162L36.8537 2.26187L37.2005 3.7717L39.0654 3.3354L40.2537 8.54229L41.9707 8.14044ZM47.4629 7.35395C49.5438 7.19321 50.988 5.60875 50.8288 3.51911C50.6696 1.42946 49.0094 0.0861187 46.9285 0.24112C44.8476 0.401862 43.3978 1.98632 43.5513 4.07596C43.7105 6.16561 45.382 7.50895 47.4629 7.34821V7.35395ZM47.3435 5.78672C46.2121 5.87283 45.4218 5.05189 45.3365 3.93818C45.2513 2.81299 45.9108 1.89446 47.0422 1.80835C48.1623 1.72224 48.9525 2.53169 49.0378 3.65688C49.1231 4.7706 48.4636 5.7006 47.3435 5.78672ZM53.4782 6.99802L53.6545 4.69023L55.309 4.81652C56.8384 4.93134 57.7538 3.95541 57.8504 2.72114C57.9471 1.47539 57.1852 0.367417 55.6558 0.252601L52.2502 -0.0114746L51.7328 6.86024L53.4896 6.99228L53.4782 6.99802ZM55.1896 3.25503L53.7682 3.14596L53.8819 1.67057L55.2976 1.77965C55.7695 1.81409 56.0936 2.11261 56.0595 2.58336C56.0254 3.04836 55.6558 3.28947 55.1896 3.25503ZM65.9751 7.50895L64.7925 5.32171L66.7938 3.90948L65.4065 3.588L63.4052 5.00023L64.5878 7.18747L65.9751 7.50895ZM63.8601 7.01524L62.6775 4.828L64.6788 3.41577L63.2915 3.09429L61.2902 4.50652L62.4728 6.69376L63.8601 7.01524ZM69.3352 10.6434C70.8646 11.2577 72.0472 10.6951 72.7807 10.0292L71.6379 8.79488C71.2285 9.2197 70.5235 9.42637 69.9095 9.18526C68.8747 8.77192 68.454 7.66969 68.869 6.62487C69.2784 5.58005 70.3302 5.06338 71.365 5.47671C71.9733 5.71783 72.3486 6.36079 72.3599 6.95209L74.0315 6.84302C73.9462 5.83264 73.4686 4.62708 71.9392 4.01855C69.9891 3.23781 67.9821 3.97837 67.2031 5.95894C66.4299 7.92803 67.3851 9.86841 69.3409 10.6492L69.3352 10.6434ZM78.0569 15.1672L81.4625 9.19674L75.9532 5.99338L72.5476 11.9638L74.0713 12.8479L76.7094 8.21507L79.1655 9.64452L76.5275 14.2716L78.0512 15.1557L78.0569 15.1672ZM82.6906 19.002L83.6344 17.7792L81.0759 15.7642L81.7866 14.8457L84.2882 16.8148L85.232 15.592L82.7304 13.6229L83.3842 12.7732L85.9427 14.7883L86.8865 13.5655L82.9407 10.454L78.7391 15.8847L82.6849 18.9963L82.6906 19.002ZM85.7323 24.318L86.8865 25.6728L89.0015 23.83L88.6035 23.3592L92.6119 19.8746L91.4634 18.5255L87.4551 22.0102L85.6073 19.8401L89.6156 16.3555L88.4671 15.0064L83.2932 19.5014L86.6875 23.4798L85.7323 24.3065V24.318ZM91.759 30.8624L96.1198 24.9552L94.9259 23.0779L87.7905 24.6107L88.8651 26.31L89.8771 26.0632L91.3269 28.3537L90.6788 29.1747L91.7533 30.8739L91.759 30.8624ZM92.3617 27.0965L91.4236 25.6154L94.056 24.9552L92.3617 27.0908V27.0965ZM93.4931 34.7662C94.0446 36.0005 95.1021 36.253 96.0061 35.8397C96.7907 35.4838 97.1887 34.6628 96.9897 33.951C97.3877 34.4849 98.1211 34.726 98.8944 34.3701C99.679 34.0141 100.213 33.0554 99.6562 31.8097L98.0643 28.2504L91.8443 31.0921L93.4874 34.7662H93.4931ZM97.1091 32.5388L96.4041 30.9658L97.4389 30.495L98.1439 32.068C98.2917 32.3952 98.178 32.7225 97.8824 32.8602C97.5753 32.998 97.257 32.8717 97.1091 32.5445V32.5388ZM94.653 33.7271L93.9252 32.0967L95.0453 31.5858L95.773 33.2162C95.9493 33.6123 95.8015 33.951 95.4944 34.0945C95.159 34.2495 94.8292 34.1117 94.6587 33.7271H94.653ZM95.4148 40.3634L100.503 38.9053L101.021 40.7538L102.499 40.329L100.981 34.9097L99.5027 35.3345L100.026 37.1945L94.9372 38.6527L95.4148 40.3634ZM96.4496 45.8689C96.7111 47.9585 98.3429 49.3363 100.407 49.0722C102.471 48.8081 103.716 47.0687 103.454 44.979C103.193 42.8894 101.555 41.5001 99.4971 41.7642C97.4332 42.0283 96.1881 43.7792 96.4496 45.8689ZM97.9904 45.6737C97.8482 44.537 98.6215 43.6988 99.7188 43.5611C100.827 43.4233 101.771 44.0433 101.908 45.18C102.05 46.3051 101.288 47.1433 100.179 47.2868C99.082 47.4246 98.1268 46.8046 97.9904 45.6794V45.6737ZM97.1603 56.2998L100.606 53.8083L103.977 55.9611L103.92 53.8543L101.749 52.5798L103.852 51.1676L103.795 49.0722L100.532 51.4144L96.967 49.1009L97.0238 51.2078L99.3549 52.643L97.1034 54.2045L97.1603 56.2998ZM96.4098 59.5319C96.0402 61.6043 97.1944 63.4127 99.2412 63.7858C101.288 64.159 102.994 62.873 103.363 60.7949C103.733 58.7225 102.579 56.9026 100.538 56.5295C98.4907 56.1563 96.785 57.4537 96.4155 59.5262L96.4098 59.5319ZM97.9392 59.8132C98.1382 58.6823 99.1275 58.1197 100.213 58.3149C101.311 58.5158 102.027 59.3884 101.828 60.5193C101.629 61.6388 100.651 62.2071 99.5539 62.0062C98.468 61.811 97.7402 60.9327 97.9392 59.8132ZM94.8861 66.1453C94.3403 67.7814 94.7269 69.2338 95.864 69.6185C96.7964 69.9342 97.6095 69.274 97.9108 68.6023C97.78 69.4175 98.1325 70.2672 98.8887 70.5255C99.9576 70.8872 101.009 70.0949 101.567 68.4301C101.97 67.2246 101.857 66.1051 101.43 65.3531L100.111 65.8066C100.367 66.4036 100.35 67.1557 100.151 67.7527C99.9235 68.4301 99.5653 68.8836 99.1616 68.7459C98.8205 68.6311 98.8091 68.1144 99.0422 67.4197L99.4857 66.0879L98.0188 65.5884L97.5753 66.9203C97.2626 67.8618 96.9784 68.1259 96.6088 67.9996C96.2506 67.879 96.1198 67.3623 96.3757 66.5931C96.5633 66.0247 97.075 65.2497 97.6834 64.934L96.8362 63.694C96.0857 64.004 95.2954 64.9053 94.8804 66.1453H94.8861ZM93.0781 71.2488L94.6984 73.2466L94.3289 74.0733L92.2366 73.1203L91.5089 74.7507L97.7288 77.5867L99.1332 74.4407C99.7586 73.0457 99.2014 71.8287 98.0415 71.3005C96.9613 70.8068 96.08 71.2144 95.6138 71.7138L93.9025 69.3946L93.0724 71.2488H93.0781ZM96.3018 73.4303C96.4894 73.0055 96.8817 72.7644 97.3195 72.9653C97.7402 73.1548 97.8255 73.6141 97.6379 74.0389L97.0636 75.3191L95.7275 74.7105L96.3018 73.4303ZM90.0534 77.0241L91.8216 81.8578L88.3875 79.3893L87.3584 80.8474L92.9189 84.843L93.9764 83.3447L92.2991 78.7176L95.574 81.0713L96.5974 79.6246L91.037 75.6291L90.0534 77.0241ZM94.6871 84.401L95.5285 84.1713C95.3693 83.7408 95.4205 83.293 95.6934 82.9084C95.9777 82.5065 96.3984 82.3343 96.8305 82.3286L96.7737 81.4502C96.08 81.4732 95.4148 81.8061 94.9941 82.4032C94.5677 83.0117 94.4767 83.7408 94.6871 84.401ZM84.3849 84.0049C83.2478 85.2104 83.3217 86.5193 83.6514 87.4551L85.215 86.8465C84.9762 86.3012 85.0558 85.5664 85.5049 85.0841C86.2725 84.2689 87.4437 84.2919 88.2454 85.0726C89.0527 85.8477 89.1323 87.0245 88.3591 87.8397C87.9042 88.3162 87.1765 88.431 86.6307 88.2186L86.1019 89.826C87.0628 90.1245 88.3477 90.1303 89.4848 88.9305C90.9346 87.3977 91.0085 85.2391 89.4848 83.7695C87.9668 82.3056 85.829 82.4721 84.3792 84.0049H84.3849ZM79.4498 88.6434L82.7247 92.8399L81.2294 94.0283L82.1789 95.2453L86.5568 91.7607L85.6073 90.5436L84.1063 91.7377L80.8314 87.5412L79.4498 88.6434ZM74.0599 92.2486C72.9001 92.926 72.7522 94.011 73.2469 94.8836C73.679 95.6357 74.5204 95.9572 75.2084 95.6873C74.7194 96.1351 74.5546 96.9044 74.981 97.645C75.4131 98.397 76.4081 98.839 77.5793 98.1616L80.9281 96.2098L77.5167 90.2394L74.0599 92.2544V92.2486ZM76.6127 95.6644L78.091 94.8033L78.6595 95.7964L77.1813 96.6575C76.8686 96.8355 76.5388 96.7551 76.3796 96.4681C76.2091 96.1753 76.3057 95.8424 76.6184 95.6644H76.6127ZM75.197 93.3164L76.7321 92.4209L77.3462 93.4944L75.8111 94.3899C75.4358 94.6081 75.089 94.4875 74.9184 94.1948C74.7365 93.8733 74.8332 93.5288 75.197 93.3164ZM68.5904 94.7459C66.646 95.5151 65.7306 97.4613 66.4925 99.4131C67.2543 101.365 69.2329 102.157 71.1774 101.382C73.1218 100.613 74.0429 98.6668 73.2867 96.715C72.5248 94.7631 70.5349 93.9766 68.5961 94.7459H68.5904ZM69.159 96.2098C70.2165 95.7907 71.2115 96.3361 71.6151 97.3751C72.0245 98.4257 71.6606 99.4992 70.6031 99.9183C69.557 100.337 68.562 99.7978 68.1583 98.7472C67.7546 97.7081 68.1128 96.6231 69.159 96.204V96.2098ZM62.6206 100.337L64.6219 101.75L66.0092 101.428L64.0079 100.016L65.1905 97.8344L63.8032 98.1559L62.6206 100.337ZM60.5056 100.831L62.5069 102.243L63.8942 101.922L61.8929 100.51L63.0754 98.3281L61.6882 98.6496L60.5056 100.831Z" fill="#006140"/>
</svg>
