<svg width="52" height="52" viewBox="0 0 52 52" fill="none" xmlns="http://www.w3.org/2000/svg">
<rect opacity="0.1" width="52" height="52" rx="10" fill="#78C887"/>
<path d="M27 19C27 20.1046 24.5376 21 21.5 21C18.4624 21 16 20.1046 16 19M27 19C27 17.8954 24.5376 17 21.5 17C18.4624 17 16 17.8954 16 19M27 19V20.5M16 19V31C16 32.1046 18.4624 33 21.5 33M21.5 25C21.3315 25 21.1647 24.9972 21 24.9918C18.1967 24.9 16 24.0433 16 23M21.5 29C18.4624 29 16 28.1046 16 27M36 25.5C36 26.6046 33.5376 27.5 30.5 27.5C27.4624 27.5 25 26.6046 25 25.5M36 25.5C36 24.3954 33.5376 23.5 30.5 23.5C27.4624 23.5 25 24.3954 25 25.5M36 25.5V33C36 34.1046 33.5376 35 30.5 35C27.4624 35 25 34.1046 25 33V25.5M36 29.25C36 30.3546 33.5376 31.25 30.5 31.25C27.4624 31.25 25 30.3546 25 29.25" stroke="#006140" stroke-width="2" stroke-linecap="round" stroke-linejoin="round"/>
</svg>
