<svg width="239" height="56" viewBox="0 0 239 56" fill="none" xmlns="http://www.w3.org/2000/svg">
<g clip-path="url(#clip0_8471_31664)">
<path d="M50.122 16.4763L51.0195 16.1175L50.5707 15.2295L49.6733 15.5884L50.122 16.4763ZM51.8191 17.6979L51.4075 16.8858L50.51 17.2446L50.9587 18.1326L50.2198 18.5049L49.7441 17.5648L48.1988 18.1932L47.8108 17.4266L49.3561 16.7981L48.9074 15.9102L47.3621 16.5387L46.9707 15.7636L48.516 15.1352L48.1314 14.3753L48.8703 14.0029L49.2819 14.8151L50.1794 14.4562L49.7306 13.5682L50.4695 13.1959L50.9452 14.136L52.4905 13.5076L52.8819 14.2826L51.3366 14.9111L51.7854 15.799L53.3307 15.1706L53.7187 15.9389L52.1734 16.5673L52.558 17.3272L51.8191 17.6995V17.6979Z" fill="#78C887"/>
<path d="M12.7824 47.9901L12.1818 48.745L13.0135 49.2925L13.6141 48.5377L12.7824 47.9885V47.9901ZM10.7023 47.7694L11.4632 48.2715L12.0637 47.5167L11.232 46.9691L11.6875 46.28L12.5681 46.8613L13.5972 45.5504L14.3159 46.0239L13.2868 47.3347L14.1185 47.8823L15.1475 46.5715L15.8729 47.05L14.8439 48.3608L15.5558 48.8309L15.1003 49.52L14.3395 49.0179L13.7389 49.7727L14.5706 50.3203L14.1151 51.0094L13.2345 50.4281L12.2054 51.739L11.48 51.2605L12.5091 49.9496L11.6774 49.4021L10.6483 50.7129L9.92969 50.2394L10.9588 48.9286L10.2468 48.4585L10.7023 47.7694Z" fill="#78C887"/>
<path fill-rule="evenodd" clip-rule="evenodd" d="M24.1036 19.8579L27.2144 21.6843L30.3235 19.8579V24.0852H34.5224L32.7275 27.1904L34.5224 30.2973H30.3235V34.4792L27.2144 32.6983L24.1036 34.4792V30.2973H19.8945L21.6996 27.1904L19.8945 24.0852H24.1036V19.8579Z" fill="#78C887"/>
<path d="M39.0352 46.6456L40.7137 49.2656L39.7285 49.894L40.3729 50.8999L43.5074 48.8966L42.8629 47.8907L41.871 48.5242L40.1924 45.9043L39.0352 46.6439V46.6456ZM41.6297 45.0551L44.7456 48.0289L45.6954 47.0365L42.5795 44.0627L41.6297 45.0551ZM45.4676 43.6769C45.2888 43.8639 45.0678 43.8757 44.9194 43.7325C44.7709 43.5909 44.7726 43.3702 44.9514 43.1832L45.7646 42.3323L46.2808 42.8243L45.4676 43.6752V43.6769ZM49.0306 43.5522L45.9147 40.5784L43.9848 42.5952C43.2948 43.3163 43.3893 44.1975 43.9578 44.7383C44.5314 45.2859 45.3799 45.3685 46.1003 44.6137L47.0804 43.5893L48.0808 44.5446L49.0306 43.5522ZM45.9737 40.2633L48.8399 39.9887L49.7492 42.3424L50.5775 40.9053L49.7391 38.9121L51.2321 39.7697L51.917 38.5801L48.182 36.4319L47.4971 37.6214L48.3946 38.137L48.6156 38.7368L46.8206 38.7958L45.9754 40.2633H45.9737ZM49.6598 31.1802C49.314 32.3983 49.8943 33.1363 51.2017 33.6906L52.1785 34.1051L51.8715 35.1851L48.8754 34.3376L48.5009 35.6586L52.6475 36.8312L53.6512 33.2896L51.7365 32.4523C50.8694 32.0765 50.6518 31.7935 50.7395 31.4851L49.6581 31.1785L49.6598 31.1802ZM49.928 30.7253L54.2366 30.8281L54.2687 29.4566L49.9601 29.3538L49.928 30.7253ZM51.8343 27.1247C51.8276 27.3825 51.6724 27.5392 51.4683 27.5358C51.2625 27.5308 51.1157 27.3673 51.1207 27.1079L51.1494 25.9318L51.863 25.9487L51.8343 27.1247ZM54.3834 24.6362L50.0748 24.5334L50.009 27.3218C49.9854 28.3193 50.6501 28.9056 51.4345 28.9241C52.2291 28.9427 52.9106 28.4339 52.9343 27.3909L52.968 25.9739L54.3513 26.006L54.3834 24.6345V24.6362ZM53.0456 18.5706L51.4548 18.9379C50.5674 19.1435 50.1204 19.7045 50.3869 20.8503C50.5151 21.4063 50.758 21.8174 50.974 22.0415L49.5046 22.3818L49.8133 23.7095L54.0122 22.7373L53.7035 21.4096L52.0351 21.7955C51.9018 21.6523 51.7702 21.445 51.6842 21.071C51.5729 20.5942 51.6876 20.2926 52.2004 20.1746L53.356 19.9067L53.0456 18.5689V18.5706Z" fill="#78C887"/>
<path d="M42.9652 10.6735L45.7909 10.1984L44.0736 11.8344L45.0217 12.8285L48.1409 9.85806L47.1861 8.85894L44.4936 9.30543L46.1283 7.75029L45.1802 6.75622L42.061 9.72664L42.9669 10.6752L42.9652 10.6735ZM41.872 9.50424L41.7337 6.63154L44.1309 5.83628L42.7341 4.94161L40.6996 5.68296L41.6291 4.23565L40.4718 3.49431L38.1455 7.11847L39.3028 7.85981L39.8611 6.98873L40.4718 6.79666L40.4448 8.58936L41.872 9.50256V9.50424ZM36.0941 6.29793C36.9578 6.63828 37.6512 6.46137 38.0291 6.20695L37.5061 5.09999C37.2598 5.26174 36.9376 5.32576 36.5968 5.19266C36.0654 4.98374 35.8056 4.44963 36.0452 3.84476C36.2847 3.2399 36.8347 3.03434 37.3661 3.24327C37.7069 3.37806 37.9042 3.62742 37.9717 3.92227L39.1071 3.47746C39.0075 3.02592 38.6178 2.43284 37.7541 2.0925C36.5007 1.59883 35.2287 2.07565 34.7344 3.32751C34.2367 4.58779 34.8407 5.80258 36.0941 6.29625V6.29793ZM32.624 5.04102L33.3241 2.00994L34.4628 2.27278L34.731 1.10854L31.1057 0.272841L30.8374 1.43709L31.9846 1.70161L31.2845 4.73269L32.624 5.04102ZM27.6305 3.29381C27.3353 3.28707 26.9844 3.10848 26.819 2.88102L26.8528 1.57188C27.0282 1.34442 27.3892 1.19278 27.6828 1.2012C28.2176 1.21468 28.6191 1.62579 28.6022 2.26773C28.5853 2.91809 28.1653 3.30898 27.6305 3.2955V3.29381ZM28.0539 4.51703C29.1336 4.54398 29.9653 3.76221 30.0024 2.30142C30.0395 0.849066 29.2483 0.0268502 28.1686 -0.000107685C27.6777 -0.0119018 27.2273 0.171749 26.8781 0.572748L26.8899 0.0740266L25.5167 0.0386443L25.3665 5.98118L26.7397 6.01656L26.7937 3.87004C27.1396 4.30642 27.5714 4.50523 28.0539 4.51703ZM21.1777 6.80845C21.3262 6.82698 21.6467 6.79666 21.7699 6.77475C22.5746 6.613 23.1802 6.29625 23.3624 5.34093L24.4117 0.156585L22.9795 0.412685L22.4936 3.27022L21.0563 0.756399L19.6325 1.01081L22.0887 5.00901L22.0331 5.255C21.9943 5.44371 21.8121 5.53806 21.505 5.59366C21.3987 5.61219 21.2638 5.60882 21.1575 5.57344L21.1794 6.81013L21.1777 6.80845ZM20.1588 5.35272L18.3824 1.43035L16.7325 2.17506L16.8709 4.6653L15.0894 2.9164L13.4395 3.66111L15.2159 7.58349L16.4677 7.01737L15.4049 4.67035L17.3702 6.60963L18.013 6.31984L17.8527 3.56508L18.9155 5.9121L20.1588 5.35104V5.35272ZM10.5919 7.28864L11.4759 6.59447L12.6618 8.10075L11.3561 9.12514C11.3882 8.80502 11.2971 8.45794 11.0676 8.08221L10.5902 7.28864H10.5919ZM11.5181 11.9119L12.5977 11.0644L11.9196 10.2018L13.7719 8.74773L14.45 9.61039L15.5297 8.7629L14.1126 6.96177L13.7415 7.25326L11.8167 4.80682L8.9184 7.0814L9.97277 8.88252C10.4536 9.69463 10.3675 9.9322 10.1313 10.1512L11.5147 11.9102L11.5181 11.9119ZM9.54934 15.4653C9.67249 15.3811 9.89179 15.1452 9.9694 15.0475C10.462 14.392 10.7032 13.7535 10.2039 12.9178L7.53338 8.35011L6.63422 9.49245L8.17444 11.949L5.42634 11.0274L4.53392 12.163L9.03143 13.5159L9.15289 13.7366C9.24905 13.9034 9.17651 14.0955 8.98419 14.3415C8.9184 14.4257 8.81381 14.5134 8.7109 14.5588L9.55102 15.467L9.54934 15.4653ZM5.87507 16.3785C5.60178 16.9092 5.03158 16.9884 4.51536 16.7239C4.00758 16.4644 3.73597 15.9556 4.00926 15.4232C4.28593 14.884 4.86119 14.7981 5.36898 15.0576C5.8852 15.3221 6.15174 15.8377 5.87507 16.3785ZM6.95475 16.9311C7.62954 15.6136 7.09139 14.3583 6.01172 13.8057C4.93205 13.2531 3.60439 13.5547 2.92791 14.8722C2.26154 16.173 2.78789 17.4332 3.86756 17.9859C4.94723 18.5385 6.28839 18.2319 6.95475 16.9311ZM5.57985 19.4804L1.38094 18.5116L0.415979 22.6883L4.61489 23.6571L4.92361 22.3194L1.88872 21.6201L2.23624 20.1172L5.27113 20.8165L5.57985 19.4787V19.4804ZM3.31085 26.5197C3.29567 27.1162 2.81488 27.4346 2.23455 27.4195C1.66435 27.4043 1.19874 27.0639 1.21392 26.4658C1.22911 25.8593 1.7099 25.5341 2.28179 25.5476C2.86211 25.5627 3.32603 25.9132 3.31085 26.5181V26.5197ZM4.5238 26.5501C4.56091 25.0707 3.53016 24.171 2.31722 24.1407C1.10427 24.1104 0.0380936 24.9562 0.000979842 26.4355C-0.0361339 27.8963 0.986181 28.8044 2.19913 28.8364C3.41207 28.8668 4.48668 28.0108 4.5238 26.5501ZM4.59128 30.2264L1.52602 30.774L1.3202 29.625L0.142687 29.8356L0.797239 33.4934L1.97476 33.2828L1.76726 32.1253L4.83252 31.5777L4.59128 30.2264ZM5.71818 34.4639C5.42128 33.5861 4.83758 33.1716 4.39896 33.0469L3.89118 34.1589C4.1729 34.2415 4.43101 34.447 4.5491 34.7924C4.7313 35.3333 4.49174 35.8741 3.87431 36.0831C3.25687 36.292 2.74571 36.0039 2.56183 35.463C2.44374 35.1176 2.50785 34.8042 2.69004 34.5633L1.6188 33.9854C1.33876 34.3527 1.13464 35.0334 1.43323 35.9112C1.8651 37.1866 3.05106 37.8488 4.32642 37.4175C5.6119 36.9828 6.15005 35.7377 5.71818 34.4639ZM8.19468 39.7426L5.33018 39.6718L7.32926 38.393L6.58698 37.2372L2.95827 39.5606L3.70561 40.7232L6.43516 40.7973L4.53392 42.0138L5.27619 43.1696L8.90491 40.8462L8.19637 39.7426H8.19468ZM9.23724 47.5806L10.4198 46.4551C11.0794 45.8283 11.1773 45.1173 10.3642 44.2665C9.9694 43.8537 9.55271 43.6228 9.25243 43.5403L10.3439 42.5007L9.40257 41.5134L6.28333 44.4838L7.22467 45.4711L8.4646 44.2901C8.65186 44.3457 8.87117 44.4569 9.13602 44.7349C9.47511 45.0904 9.53078 45.4054 9.14952 45.7694L8.29084 46.5865L9.23893 47.5806H9.23724Z" fill="#78C887"/>
<path d="M40.3738 14.4494C40.6842 14.4494 40.9744 14.532 41.2275 14.682C41.4872 14.8336 41.7066 15.056 41.8651 15.3273L45.8565 22.1948C46.1551 22.7104 46.307 23.2798 46.307 23.8493C46.307 24.4188 46.1585 24.9731 45.8565 25.482C44.8764 27.1314 44.0498 28.5265 43.0848 30.1844L44.2354 30.8483C44.318 30.887 44.3889 30.9494 44.4378 31.0252C44.4867 31.0993 44.5137 31.1886 44.5137 31.2846C44.5137 31.3706 44.4901 31.4565 44.4479 31.5306C44.399 31.6132 44.3298 31.6772 44.2505 31.7193C44.1696 31.7615 44.0768 31.78 43.984 31.7716L39.9656 31.7682V40.3391C39.9656 40.6492 39.8829 40.9389 39.7345 41.1917C39.5826 41.4511 39.36 41.6702 39.0883 41.8286L32.2122 45.815C31.696 46.1132 31.1258 46.2648 30.5556 46.2648C30.0478 46.2648 29.5383 46.1435 29.071 45.8992L29.0508 44.772L29.5096 45.0416C29.6969 45.1511 29.7779 45.168 29.9651 45.2202C30.1676 45.2775 30.3666 45.3028 30.5589 45.3028C30.7647 45.3028 30.9638 45.2758 31.1561 45.2236C31.3586 45.168 31.5526 45.0854 31.7331 44.9809L37.6359 41.5758L28.8989 36.4926L28.8787 35.3637L31.7769 37.052V31.7564H37.2074C37.1567 31.7379 37.1112 31.7109 37.069 31.6755C37.0285 31.6418 36.9914 31.5997 36.9627 31.5509L33.8671 26.2048L33.307 27.1736L35.3938 30.7859H30.8035V35.3182L27.907 33.6603C27.9154 34.2635 27.9239 35.047 27.9323 35.822C27.9424 36.7403 27.9508 37.6484 27.961 38.2347C28.1347 38.078 28.2528 37.9668 28.3928 37.8371L28.5194 37.7192C28.737 37.517 28.9614 37.4749 29.1435 37.5338C29.2262 37.5608 29.2988 37.608 29.3595 37.6703C29.4185 37.7326 29.4641 37.8085 29.4911 37.8944C29.5585 38.1084 29.5164 38.3779 29.2937 38.6206C28.8635 39.1126 28.5767 39.4428 28.1735 39.9095L27.988 40.1235C28.0015 40.6913 28.015 41.2726 28.0268 41.8606C28.0673 43.7038 28.1094 45.606 28.187 47.3937C28.1938 47.5605 28.2039 47.7104 28.2208 47.8486C28.2376 47.9817 28.2596 48.0996 28.2916 48.2092C28.327 48.258 28.3625 48.3018 28.3996 48.3406C28.6526 48.6051 28.9614 48.6523 29.2515 48.6034C29.5484 48.5529 29.8268 48.4029 30.0124 48.2715C30.0849 48.221 30.1439 48.1721 30.1827 48.135C30.3784 47.948 30.5303 47.8621 30.6399 47.8452C30.7057 47.8351 30.758 47.8503 30.7985 47.8823C30.8373 47.9143 30.8626 47.9615 30.8727 48.0205C30.893 48.1367 30.8592 48.3018 30.7766 48.472C30.7293 48.5697 30.4881 48.9572 30.0781 49.2639C29.8673 49.4223 29.6125 49.5587 29.3156 49.6278L29.3561 49.6531C29.4 49.6784 29.4438 49.702 29.4894 49.7222C29.8841 49.9008 30.4628 49.8654 31.0043 49.648C31.4986 49.4492 31.9608 49.0988 32.2257 48.6203C32.3657 48.3659 32.5209 48.2412 32.6525 48.221C32.7183 48.2108 32.779 48.2243 32.8313 48.2614C32.8802 48.2951 32.919 48.349 32.9443 48.4198C33.0101 48.6 32.9865 48.9 32.8077 49.2538C33.0084 49.2858 33.2008 49.338 33.3813 49.4105C33.5786 49.488 33.7608 49.5908 33.9245 49.7154C34.1556 49.8907 34.2703 50.0288 34.304 50.1282C34.3226 50.1838 34.3192 50.2293 34.2956 50.2664C34.2737 50.3035 34.2349 50.327 34.1843 50.3388C34.0881 50.3607 33.9346 50.3388 33.7693 50.2664C32.7132 49.8148 32.0334 50.2495 31.367 50.6758C31.286 50.728 31.2051 50.7803 31.1173 50.8325C31.038 50.8814 30.9571 50.9252 30.8761 50.9622C30.8272 50.9841 30.7782 51.0044 30.7276 51.0229C31.033 51.1813 31.3636 51.3026 31.701 51.3733C32.0452 51.4458 32.3978 51.4643 32.7402 51.4138C33.1434 51.3548 33.4167 51.375 33.5567 51.4407C33.6259 51.4728 33.6664 51.5182 33.6782 51.5722C33.69 51.6261 33.6714 51.6834 33.6242 51.7423C33.5247 51.8636 33.2851 52.0018 32.8988 52.1197C32.6812 52.1871 32.4534 52.2326 32.2189 52.2613C31.9979 52.2865 31.7719 52.295 31.5424 52.2865C31.5762 52.5527 31.6892 52.8156 31.8849 53.0481C32.0789 53.2789 32.3556 53.4811 32.7166 53.6294C32.9831 53.7389 33.14 53.8619 33.1991 53.9697C33.2294 54.0253 33.2362 54.0792 33.2227 54.1281C33.2075 54.177 33.1721 54.2174 33.1181 54.2477C33.0084 54.3084 32.8111 54.3286 32.5462 54.2797C31.9811 54.1753 31.5155 53.9175 31.1612 53.5502C30.7951 53.1711 30.5505 52.6757 30.4392 52.1181C29.8993 51.9698 29.3848 51.7288 28.9479 51.402C28.5649 51.1139 28.2427 50.7584 28.0183 50.3405C28.0015 50.3927 27.9896 50.4433 27.9812 50.4922C27.9694 50.5764 27.9694 50.6573 27.9812 50.7348C28.0048 50.8881 28.0487 51.0263 28.133 51.1627C28.2191 51.3009 28.3473 51.4374 28.5413 51.5873C28.7775 51.7693 29.039 51.9782 29.2853 52.2124C29.5332 52.4483 29.766 52.7094 29.9415 52.9959C30.1456 53.3278 30.257 53.6782 30.2468 54.0439C30.2367 54.4095 30.1051 54.7903 29.8285 55.1862C29.6598 55.4271 29.4843 55.5417 29.346 55.5569C29.2802 55.5653 29.2211 55.5518 29.1722 55.5198C29.125 55.4878 29.0879 55.4389 29.0659 55.3766C29.017 55.2334 29.0457 55.011 29.1975 54.7431C29.3494 54.4735 29.3494 54.2191 29.2515 53.9781C29.1537 53.7389 28.9597 53.5131 28.7201 53.3025C28.3827 53.3851 28.1567 53.5165 28.0183 53.6884C27.8783 53.8619 27.8277 54.0776 27.8429 54.3269C27.8598 54.6066 27.8108 54.8105 27.7315 54.9149C27.6944 54.9655 27.6489 54.9958 27.5983 55.0042C27.5477 55.0127 27.4954 54.9992 27.4448 54.9604C27.3452 54.8863 27.2474 54.7128 27.1799 54.4213C27.1006 54.0792 27.109 53.7271 27.1934 53.4002C27.2744 53.0852 27.4245 52.792 27.6354 52.546C27.4127 52.3961 27.2322 52.2276 27.0888 52.0473C26.9522 51.8737 26.8476 51.6884 26.77 51.493C26.4241 51.8569 26.0699 52.3523 25.9281 52.9066C25.8185 53.3362 25.8371 53.8029 26.0901 54.2713C26.2622 54.4903 26.3381 54.6706 26.3364 54.7919C26.3364 54.8543 26.3162 54.9031 26.2807 54.9385C26.2453 54.9722 26.1947 54.9908 26.1323 54.9891C26.0091 54.9857 25.8303 54.9048 25.6194 54.7262C25.4507 54.5847 25.3124 54.4179 25.2027 54.2326C25.0981 54.0573 25.0172 53.8669 24.9615 53.6664C24.7523 53.8248 24.5516 54.0489 24.4571 54.3522C24.3795 54.6032 24.3761 54.9116 24.5026 55.2822C24.6309 55.5821 24.6646 55.7759 24.6393 55.8821C24.6241 55.9444 24.5904 55.9831 24.5448 55.9983C24.5026 56.0135 24.4503 56.0067 24.3947 55.9815C24.2631 55.9225 24.0944 55.754 23.9628 55.5181C23.5883 54.8442 23.563 54.2679 23.7064 53.7962C23.9223 53.0818 24.5246 52.61 24.889 52.4028C24.9109 52.2478 24.9429 52.0962 24.9851 51.9479C25.0155 51.8434 25.0492 51.7423 25.088 51.6429C25.0492 51.6665 25.0104 51.6918 24.9716 51.7137C24.8873 51.7642 24.7979 51.8114 24.7085 51.8569C24.5786 51.9226 24.4402 51.9782 24.2985 52.0271C24.1585 52.0742 24.0134 52.1147 23.8666 52.1484C23.7502 52.6993 23.5056 53.1863 23.1412 53.5603C22.7887 53.9226 22.3264 54.177 21.7663 54.2814C21.4998 54.3303 21.3041 54.3101 21.1945 54.2494C21.1388 54.2191 21.1034 54.1786 21.0899 54.1298C21.0747 54.0809 21.0831 54.027 21.1135 53.9714C21.1725 53.8636 21.3294 53.7406 21.596 53.6311C21.93 53.4946 22.1898 53.2941 22.3821 53.065C22.5913 52.8173 22.7195 52.5376 22.7769 52.2714C22.5441 52.2747 22.3197 52.263 22.1156 52.2411C21.8828 52.2158 21.6753 52.1737 21.5066 52.1214C21.1304 52.0052 20.8942 51.8754 20.793 51.7609C20.7423 51.7019 20.7221 51.6429 20.7339 51.589C20.7457 51.5351 20.7862 51.4879 20.8571 51.4525C20.9988 51.3818 21.2771 51.3481 21.6854 51.3835C21.9992 51.4104 22.3197 51.3767 22.6318 51.3026C22.9506 51.2251 23.261 51.1054 23.5478 50.9589C23.5242 50.9488 23.5006 50.937 23.4786 50.9252C23.4263 50.8982 23.374 50.8696 23.3201 50.8359C23.234 50.782 23.1514 50.7297 23.0704 50.6792C22.4023 50.2512 21.7242 49.8165 20.6681 50.2698C20.5028 50.3405 20.351 50.3641 20.2531 50.3422C20.2025 50.3304 20.1637 50.3068 20.1418 50.2698C20.1198 50.2327 20.1148 50.1872 20.1333 50.1316C20.1671 50.0322 20.2818 49.894 20.5129 49.7188C20.6766 49.5941 20.8604 49.493 21.0561 49.4138C21.2366 49.3414 21.429 49.2892 21.6297 49.2571C21.4492 48.9033 21.4273 48.6051 21.4931 48.4231C21.5184 48.3524 21.5572 48.2985 21.6061 48.2648C21.6567 48.2294 21.7174 48.2142 21.7849 48.2243C21.9165 48.2462 22.07 48.3692 22.2117 48.6236C22.4766 49.1021 22.9388 49.4526 23.4331 49.6514C23.9746 49.8688 24.5533 49.9041 24.948 49.7255C24.9868 49.7087 25.0239 49.6885 25.061 49.6683C25.0813 49.6565 25.1015 49.6447 25.1218 49.6312C24.8181 49.5604 24.56 49.4189 24.3474 49.2588C23.9443 48.9522 23.7081 48.5731 23.6608 48.4754C23.5782 48.3052 23.5444 48.1384 23.5647 48.0238C23.5748 47.9649 23.6001 47.916 23.6389 47.8857C23.6794 47.8536 23.7317 47.8385 23.7975 47.8486C23.9071 47.8654 24.059 47.9514 24.2547 48.1384C24.307 48.1873 24.3913 48.2563 24.501 48.3254C24.6966 48.4501 24.9632 48.5798 25.2432 48.6135C25.5165 48.6472 25.8016 48.5883 26.0378 48.3423C26.0867 48.2917 26.134 48.2311 26.1795 48.162C26.2065 48.0609 26.2251 47.9497 26.2386 47.8267C26.2537 47.7003 26.2622 47.5622 26.2689 47.4088C26.3212 46.2008 26.3448 44.8714 26.3685 43.5033L26.3803 42.826C26.2335 42.6322 26.0884 42.4385 25.9416 42.2464C25.8202 42.0847 25.697 41.9212 25.503 41.6651C25.3866 41.5101 25.3191 41.3248 25.3208 41.1512C25.3208 40.9878 25.3833 40.8362 25.5199 40.7317C25.6667 40.6171 25.8252 40.6053 25.9788 40.6508C26.139 40.698 26.2959 40.8109 26.4275 40.9322L26.5102 36.5128C26.1458 36.223 25.8438 35.9079 25.5924 35.5693C25.3495 35.2407 25.1555 34.892 25.002 34.5247L23.6153 35.3199V30.7876H19.0132L19.8921 29.2695L19.0722 28.7961L17.3397 31.7615H22.6419V37.1817C22.6605 37.1328 22.6874 37.0873 22.7229 37.0452C22.7566 37.0048 22.7988 36.9677 22.8477 36.9391L24.6224 35.9147C24.7 36.041 24.7827 36.1657 24.8721 36.287C24.975 36.4269 25.0863 36.5617 25.2095 36.6931L23.595 37.6198L23.6018 42.1756C23.6069 42.1672 23.6102 42.1571 23.6153 42.1504C23.6811 42.0341 23.789 41.9566 23.9088 41.9246C24.0286 41.8926 24.1602 41.9044 24.2766 41.9718C24.3036 41.9869 24.3289 42.0021 24.3542 42.019C24.7135 42.2296 25.0661 42.4368 25.4153 42.6407L25.3951 43.7392C25.0121 43.5151 24.6207 43.2877 24.2142 43.0518L23.5495 44.2009C23.5107 44.2834 23.4483 44.3542 23.3724 44.403C23.2981 44.4519 23.2087 44.4789 23.1126 44.4789C23.0265 44.4789 22.9405 44.4553 22.8663 44.4132C22.7836 44.3643 22.7195 44.2952 22.6773 44.216C22.6351 44.1351 22.6166 44.0425 22.625 43.9498L22.6284 39.9365H14.0484C13.738 39.9365 13.4461 39.8539 13.1948 39.7056C12.935 39.554 12.7157 39.3316 12.5571 39.0603L8.56566 32.1928C8.26706 31.6772 8.11523 31.1077 8.11523 30.5383C8.11523 29.9688 8.26369 29.4144 8.56566 28.9056C9.5458 27.2561 10.3724 25.8611 11.3374 24.2031L10.1869 23.5393C10.1042 23.5006 10.0333 23.4382 9.98442 23.3624C9.93549 23.2883 9.9085 23.199 9.9085 23.1029C9.9085 23.017 9.93212 22.9311 9.9743 22.8569C10.0232 22.7744 10.0924 22.7103 10.1717 22.6682C10.2526 22.6261 10.3454 22.6076 10.4382 22.616L14.4617 22.6194V14.0451C14.4617 13.7351 14.5443 13.4453 14.6928 13.1925C14.8446 12.9331 15.0673 12.714 15.3389 12.5556L22.2151 8.56925C22.7313 8.27102 23.3015 8.11938 23.8717 8.11938C24.4419 8.11938 24.9969 8.26765 25.5064 8.56925C27.158 9.54815 28.5548 10.3737 30.2148 11.3375L30.8795 10.1884C30.9183 10.1058 30.9807 10.0351 31.0566 9.98622C31.1308 9.93736 31.2202 9.9104 31.3164 9.9104C31.4969 9.9104 31.6673 10.0115 31.7499 10.1732C31.7921 10.2541 31.8107 10.3468 31.8022 10.4394L31.7989 14.4562H40.3755L40.3738 14.4494ZM34.5048 25.1045L35.3517 25.5932L37.0842 22.6278H31.782V17.216C31.7634 17.2615 31.7381 17.3036 31.7061 17.3407C31.6707 17.3811 31.6302 17.4182 31.5812 17.4468L26.2402 20.5318L27.2086 21.0929L30.8086 19.0171V23.605H35.3736L34.5065 25.1079L34.5048 25.1045ZM25.1353 19.8916L25.6177 19.0592L22.6486 17.3289V22.6244H17.2047H17.2098C17.2604 22.6463 17.3093 22.6733 17.3515 22.7087C17.392 22.7424 17.4291 22.7845 17.4578 22.8333L20.5365 28.1491L21.105 27.1668L19.0435 23.6H23.6187V19.0121L25.1353 19.8899V19.8916ZM26.5574 33.63L26.0007 33.9451C26.0513 34.0883 26.134 34.2382 26.2267 34.3781C26.3313 34.5364 26.4477 34.6797 26.5456 34.7841L26.5574 33.63ZM24.587 20.7003V24.5688H20.7221L22.2218 27.1685L20.6951 29.8138H24.587V33.6452L27.2069 32.1338L29.8369 33.6502V29.8104H33.722L32.1953 27.1668L33.6967 24.5671H29.8352V20.6986L27.2052 22.2066L24.5853 20.6986L24.587 20.7003ZM38.0407 40.693C38.1403 40.7502 38.2432 40.7941 38.3444 40.821C38.4389 40.8463 38.5316 40.8564 38.6194 40.8463C38.7476 40.8328 38.8387 40.7789 38.8994 40.698C38.9703 40.6037 39.0023 40.4739 39.0023 40.3341C39.0023 37.795 39.0023 35.2542 39.0023 32.7151H32.7503V37.6096L38.0441 40.6913L38.0407 40.693ZM18.4801 27.888C18.5476 27.7734 18.6555 27.6959 18.7753 27.6639C18.8951 27.6319 19.0267 27.647 19.1414 27.7127C19.1498 27.7178 19.1583 27.7228 19.1667 27.7279L16.7762 23.5797L12.2146 23.5865C12.2231 23.5915 12.2332 23.5949 12.2399 23.6C12.3563 23.6657 12.4339 23.7735 12.466 23.8931C12.498 24.0128 12.4862 24.1442 12.4187 24.2604C12.4036 24.2874 12.3884 24.3127 12.3715 24.3379C11.3357 26.102 10.3792 27.7228 9.33999 29.4886C9.23033 29.6756 9.21346 29.7565 9.16117 29.9435C9.10381 30.1457 9.0785 30.3445 9.0785 30.5366C9.0785 30.7421 9.1055 30.9409 9.15779 31.133C9.21346 31.3352 9.29613 31.529 9.40072 31.7092L12.8101 37.6046L18.4784 27.888H18.4801ZM13.6924 38.0073C13.6351 38.1067 13.5912 38.2095 13.5642 38.3106C13.5389 38.4049 13.5288 38.4976 13.5389 38.5852C13.5524 38.7132 13.6064 38.8042 13.6874 38.8649C13.7818 38.9356 13.9117 38.9677 14.0517 38.9677C16.594 38.9677 19.138 38.9677 21.6803 38.9677V32.7235H16.7796L13.6941 38.0106L13.6924 38.0073ZM26.5186 18.4662C26.6333 18.5336 26.7109 18.6414 26.743 18.761C26.775 18.8806 26.7598 19.0121 26.694 19.1266C26.689 19.1351 26.6839 19.1435 26.6789 19.1519L30.8322 16.7644L30.8255 12.2086C30.8204 12.217 30.817 12.2271 30.812 12.2338C30.7462 12.3501 30.6382 12.4276 30.5184 12.4596C30.3987 12.4916 30.2671 12.4798 30.1507 12.4124C30.1237 12.3973 30.0984 12.3821 30.0731 12.3653C28.3068 11.3307 26.6839 10.3754 24.916 9.33755C24.7287 9.22803 24.6477 9.21118 24.4605 9.15895C24.258 9.10166 24.059 9.07639 23.8666 9.07639C23.6608 9.07639 23.4618 9.10335 23.2695 9.15558C23.067 9.21118 22.873 9.29374 22.6925 9.3982L16.7897 12.8033L26.5186 18.4645V18.4662ZM16.3865 13.6845C16.287 13.6272 16.1841 13.5834 16.0829 13.5565C15.9884 13.5312 15.8956 13.5211 15.8079 13.5312C15.6797 13.5447 15.5886 13.5986 15.5279 13.6795C15.457 13.7738 15.425 13.9035 15.425 14.0434C15.425 16.5825 15.425 19.1233 15.425 21.6624H21.6769V16.7678L16.3832 13.6862L16.3865 13.6845ZM35.9421 26.4929C35.8746 26.6075 35.7667 26.685 35.6469 26.717C35.5271 26.749 35.3955 26.7338 35.2808 26.6681C35.2724 26.6631 35.2639 26.658 35.2555 26.6529L37.646 30.8011L42.2076 30.7944C42.1992 30.7893 42.189 30.7859 42.1823 30.7809C42.0659 30.7152 41.9883 30.6073 41.9562 30.4877C41.9242 30.3681 41.936 30.2367 42.0035 30.1204C42.0187 30.0934 42.0338 30.0682 42.0507 30.0429C43.0865 28.2788 44.043 26.658 45.0822 24.8923C45.1919 24.7052 45.2087 24.6244 45.261 24.4373C45.3184 24.2352 45.3437 24.0363 45.3437 23.8443C45.3437 23.6387 45.3167 23.4399 45.2644 23.2478C45.2087 23.0456 45.1261 22.8519 45.0215 22.6716L41.6121 16.7762L35.9438 26.4929H35.9421ZM40.7298 16.3736C40.7871 16.2742 40.831 16.1714 40.858 16.0703C40.8833 15.9759 40.8934 15.8833 40.8833 15.7956C40.8698 15.6676 40.8158 15.5766 40.7348 15.516C40.6404 15.4452 40.5105 15.4132 40.3705 15.4132C37.8282 15.4132 35.2842 15.4132 32.7419 15.4132V21.6573H37.6426L40.7281 16.3702L40.7298 16.3736Z" fill="#006140"/>
</g>
<g clip-path="url(#clip1_8471_31664)">
<path d="M76.2479 40.7326C78.5895 40.7326 79.8508 39.2477 80.4759 37.8771L78.3263 36.7589C78.0082 37.6066 77.1802 38.3039 76.2479 38.3039C74.6631 38.3039 73.5445 36.9633 73.5445 35.226C73.5445 33.4886 74.6631 32.148 76.2479 32.148C77.1802 32.148 78.0082 32.8514 78.3263 33.693L80.4759 32.5748C79.8343 31.1741 78.584 29.7193 76.2479 29.7193C73.2703 29.7193 71 31.9376 71 35.22C71 38.5023 73.2703 40.7206 76.2479 40.7206V40.7326ZM90.5825 40.5402V29.9117H81.5562V40.5402H84.0568V32.2983H88.0819V40.5402H90.5825ZM99.4387 40.5402V38.1476H94.8324V36.3441H99.34V33.9515H94.8324V32.2923H99.4387V29.8997H92.3318V40.5282H99.4387V40.5402ZM108.278 42.5H110.796V38.1476H109.924V29.9057H107.423V38.1476H103.398V29.9057H100.897V40.5342H108.284V42.494L108.278 42.5ZM121.291 40.5402L117.628 29.9117H114.486L110.839 40.5402H113.674L114.152 39.0073H117.974L118.451 40.5402H121.286H121.291ZM117.294 36.6207H114.821L116.054 32.6229L117.288 36.6207H117.294ZM127.674 40.5402C129.577 40.5402 130.526 39.1996 130.526 37.6547C130.526 36.3141 129.714 35.232 128.678 35.0576C129.594 34.8352 130.334 33.9395 130.334 32.6169C130.334 31.2944 129.418 29.9057 127.499 29.9057H122.004V40.5342H127.674V40.5402ZM126.934 33.9876H124.505V32.2202H126.934C127.444 32.2202 127.79 32.5869 127.79 33.0979C127.79 33.6088 127.439 33.9876 126.934 33.9876ZM127.022 38.2258H124.505V36.3141H127.022C127.631 36.3141 127.982 36.7469 127.982 37.2699C127.982 37.841 127.62 38.2258 127.022 38.2258ZM136.383 40.5342V32.2923H139.086V29.8997H131.162V32.2923H133.882V40.5342H136.383ZM144.652 40.7266C147.619 40.7266 149.829 38.4662 149.829 35.226C149.829 31.9857 147.619 29.7253 144.652 29.7253C141.685 29.7253 139.465 31.9857 139.465 35.226C139.465 38.4662 141.691 40.7266 144.652 40.7266ZM144.652 38.3039C143.04 38.3039 142.004 36.9513 142.004 35.226C142.004 33.5006 143.034 32.148 144.652 32.148C146.27 32.148 147.284 33.4886 147.284 35.226C147.284 36.9633 146.253 38.3039 144.652 38.3039ZM159.76 40.5342L156.387 35.0697L159.541 29.9057H156.574L154.698 33.2361L152.796 29.9057H149.845L153.015 35.0877L149.626 40.5402H152.593L154.698 36.9693L156.804 40.5402H159.754L159.76 40.5342ZM164.745 40.7266C167.711 40.7266 169.921 38.4662 169.921 35.226C169.921 31.9857 167.711 29.7253 164.745 29.7253C161.778 29.7253 159.557 31.9857 159.557 35.226C159.557 38.4662 161.783 40.7266 164.745 40.7266ZM164.745 38.3039C163.132 38.3039 162.096 36.9513 162.096 35.226C162.096 33.5006 163.127 32.148 164.745 32.148C166.362 32.148 167.377 33.4886 167.377 35.226C167.377 36.9633 166.346 38.3039 164.745 38.3039ZM174.703 40.7266C177.132 40.7266 178.893 39.4341 178.893 37.5705C178.893 36.0375 177.642 35.1658 176.611 35.0516C177.758 34.8472 178.734 33.9034 178.734 32.659C178.734 30.9036 177.193 29.7434 174.72 29.7434C172.932 29.7434 171.49 30.4588 170.678 31.4627L171.884 33.182C172.57 32.5147 173.573 32.16 174.456 32.16C175.46 32.16 176.228 32.4606 176.228 33.1339C176.228 33.693 175.542 33.9635 174.511 33.9635H172.532V36.3682H174.511C175.904 36.3682 176.387 36.6567 176.387 37.2579C176.387 37.8591 175.761 38.2919 174.615 38.2919C173.771 38.2919 172.51 37.9252 171.808 37.1737L170.541 39.0373C171.298 39.9932 172.855 40.7086 174.698 40.7086L174.703 40.7266ZM182.715 40.5342L184.327 36.9633H185.605V40.5342H188.122V29.9057H183.269C181.119 29.9057 179.88 31.4687 179.88 33.4465C179.88 35.2981 180.911 36.284 181.826 36.6327L179.847 40.5402H182.709L182.715 40.5342ZM183.631 34.5707C182.978 34.5707 182.441 34.1739 182.441 33.4225C182.441 32.671 182.978 32.2923 183.631 32.2923H185.61V34.5707H183.631ZM192.279 40.5342L196.364 33.9695V40.5342H198.881V29.9057H196.293L192.366 36.1698V29.9057H189.866V40.5342H192.279ZM196.918 28.0541L195.958 27.1945C195.596 27.7836 195.042 28.1202 194.373 28.1202C193.704 28.1202 193.139 27.7355 192.772 27.1945L191.812 28.0541C192.41 28.9138 193.337 29.4548 194.373 29.4548C195.41 29.4548 196.336 28.9138 196.918 28.0541ZM205.379 40.7266C207.721 40.7266 208.982 39.2417 209.607 37.8711L207.458 36.7529C207.139 37.6006 206.311 38.2979 205.379 38.2979C203.794 38.2979 202.676 36.9573 202.676 35.22C202.676 33.4826 203.794 32.142 205.379 32.142C206.311 32.142 207.139 32.8454 207.458 33.687L209.607 32.5688C208.966 31.1681 207.715 29.7133 205.379 29.7133C202.401 29.7133 200.131 31.9316 200.131 35.2139C200.131 38.4963 202.401 40.7146 205.379 40.7146V40.7266ZM215.354 40.5342V32.2923H218.058V29.8997H210.134V32.2923H212.854V40.5342H215.354ZM224.918 40.5342C226.821 40.5342 227.769 39.1936 227.769 37.6486C227.769 36.3081 226.958 35.226 225.921 35.0516C226.837 34.8292 227.577 33.9335 227.577 32.6109C227.577 31.2884 226.662 29.8997 224.742 29.8997H219.248V40.5282H224.918V40.5342ZM224.177 33.9816H221.748V32.2141H224.177C224.687 32.2141 225.033 32.5809 225.033 33.0918C225.033 33.6028 224.682 33.9816 224.177 33.9816ZM224.265 38.2197H221.748V36.3081H224.265C224.874 36.3081 225.225 36.7409 225.225 37.2639C225.225 37.835 224.863 38.2197 224.265 38.2197ZM233.829 40.7206C236.796 40.7206 239.005 38.4602 239.005 35.22C239.005 31.9797 236.796 29.7193 233.829 29.7193C230.862 29.7193 228.641 31.9797 228.641 35.22C228.641 38.4602 230.868 40.7206 233.829 40.7206ZM233.829 38.2979C232.217 38.2979 231.18 36.9453 231.18 35.22C231.18 33.4946 232.211 32.142 233.829 32.142C235.447 32.142 236.461 33.4826 236.461 35.22C236.461 36.9573 235.43 38.2979 233.829 38.2979Z" fill="#006140"/>
<path d="M180.895 24.5553C183.319 24.5553 185.123 22.7038 185.123 20.0647C185.123 17.4256 183.319 15.574 180.895 15.574C178.471 15.574 176.656 17.4256 176.656 20.0647C176.656 22.7038 178.471 24.5553 180.895 24.5553ZM180.895 22.5775C179.579 22.5775 178.735 21.4714 178.735 20.0647C178.735 18.658 179.579 17.5518 180.895 17.5518C182.211 17.5518 183.045 18.6459 183.045 20.0647C183.045 21.4834 182.2 22.5775 180.895 22.5775ZM193.535 24.399V15.7123H186.16V24.399H188.205V17.666H191.495V24.399H193.541H193.535ZM200.768 24.399V22.4453H197.001V20.9724H200.686V19.0187H197.001V17.666H200.768V15.7123H194.961V24.399H200.768ZM203.998 24.399V21.4834H205.923C207.705 21.4834 208.681 20.1669 208.681 18.6039C208.681 17.0408 207.705 15.7123 205.923 15.7123H201.958V24.399H204.004H203.998ZM205.649 19.5296H203.998V17.666H205.649C206.197 17.666 206.597 18.0027 206.597 18.6039C206.597 19.205 206.192 19.5296 205.649 19.5296ZM216.435 24.399L213.441 15.7123H210.875L207.892 24.399H210.206L210.601 23.1486H213.726L214.116 24.399H216.43H216.435ZM213.167 21.1949H211.149L212.158 17.9245L213.167 21.1949ZM220.093 24.399V17.666H222.303V15.7123H215.827V17.666H218.048V24.399H220.093ZM226.854 24.5553C229.278 24.5553 231.082 22.7038 231.082 20.0647C231.082 17.4256 229.278 15.574 226.854 15.574C224.431 15.574 222.616 17.4256 222.616 20.0647C222.616 22.7038 224.431 24.5553 226.854 24.5553ZM226.854 22.5775C225.538 22.5775 224.694 21.4714 224.694 20.0647C224.694 18.658 225.538 17.5518 226.854 17.5518C228.171 17.5518 229.004 18.6459 229.004 20.0647C229.004 21.4834 228.16 22.5775 226.854 22.5775ZM234.159 24.399V21.4834H236.084C237.866 21.4834 238.842 20.1669 238.842 18.6039C238.842 17.0408 237.866 15.7123 236.084 15.7123H232.119V24.399H234.164H234.159ZM235.809 19.5296H234.159V17.666H235.809C236.358 17.666 236.758 18.0027 236.758 18.6039C236.758 19.205 236.352 19.5296 235.809 19.5296Z" fill="#006140"/>
<path d="M73.5556 24.399V21.4834H75.4804C77.2626 21.4834 78.2387 20.1669 78.2387 18.6039C78.2387 17.0408 77.2626 15.7123 75.4804 15.7123H71.5156V24.399H73.5611H73.5556ZM75.2062 19.5296H73.5556V17.666H75.2062C75.7546 17.666 76.1549 18.0027 76.1549 18.6039C76.1549 19.205 75.7491 19.5296 75.2062 19.5296ZM84.9563 24.399V22.4453H81.189V20.9724H84.874V19.0187H81.189V17.666H84.9563V15.7123H79.149V24.399H84.9563ZM88.1862 24.399V17.666H91.9535V15.7123H86.1463V24.399H88.1917H88.1862ZM95.0299 24.399L98.3695 19.0367V24.399H100.426V15.7123H98.3092L95.1012 20.8282V15.7123H93.0558V24.399H95.0299ZM105.685 24.5553C108.109 24.5553 109.913 22.7038 109.913 20.0647C109.913 17.4256 108.109 15.574 105.685 15.574C103.261 15.574 101.446 17.4256 101.446 20.0647C101.446 22.7038 103.261 24.5553 105.685 24.5553ZM105.685 22.5775C104.369 22.5775 103.524 21.4714 103.524 20.0647C103.524 18.658 104.369 17.5518 105.685 17.5518C107.001 17.5518 107.834 18.6459 107.834 20.0647C107.834 21.4834 106.99 22.5775 105.685 22.5775ZM118.325 24.399V15.7123H116.279V18.9706H112.989V15.7123H110.944V24.399H112.989V20.9243H116.279V24.399H118.325ZM127.45 24.399L124.456 15.7123H121.889L118.906 24.399H121.22L121.615 23.1486H124.741L125.13 24.399H127.444H127.45ZM124.182 21.1949H122.163L123.173 17.9245L124.182 21.1949ZM127.592 24.5553C129.325 24.5553 130.68 23.7979 131.064 20.2811L131.349 17.666H133.367V24.399H135.412V15.7123H129.506L129.029 20.1128C128.804 22.0906 128.327 22.5715 127.592 22.5715V24.5493V24.5553ZM136.833 15.7123V24.399H140.803C142.585 24.399 143.561 23.0825 143.561 21.5075C143.561 19.9324 142.585 18.6279 140.803 18.6279H138.878V15.7123H136.833ZM140.529 20.5817C141.077 20.5817 141.477 20.9183 141.477 21.5075C141.477 22.0966 141.071 22.4453 140.529 22.4453H138.878V20.5817H140.529ZM151.847 24.399V15.7123H149.802V18.9706H146.511V15.7123H144.466V24.399H146.511V20.9243H149.802V24.399H151.847ZM153.273 15.7123V24.399H157.238C159.02 24.399 159.996 23.0825 159.996 21.5075C159.996 19.9324 159.02 18.6279 157.238 18.6279H155.313V15.7123H153.267H153.273ZM156.969 20.5817C157.517 20.5817 157.918 20.9183 157.918 21.5075C157.918 22.0966 157.512 22.4453 156.969 22.4453H155.318V20.5817H156.969ZM162.623 24.399V15.7123H160.577V24.399H162.623ZM166.022 24.399L169.362 19.0367V24.399H171.418V15.7123H169.302L166.094 20.8282V15.7123H164.048V24.399H166.022ZM169.812 14.2034L169.028 13.5C168.731 13.9809 168.282 14.2575 167.733 14.2575C167.185 14.2575 166.724 13.9449 166.428 13.5L165.644 14.2034C166.132 14.9067 166.889 15.3516 167.733 15.3516C168.578 15.3516 169.335 14.9067 169.812 14.2034Z" fill="#006140"/>
</g>
<defs>
<clipPath id="clip0_8471_31664">
<rect width="55" height="56" fill="white"/>
</clipPath>
<clipPath id="clip1_8471_31664">
<rect width="168" height="29" fill="white" transform="translate(71 13.5)"/>
</clipPath>
</defs>
</svg>
