<svg width="32" height="33" viewBox="0 0 32 33" fill="none" xmlns="http://www.w3.org/2000/svg">
<g clip-path="url(#clip0_9747_22828)">
<path fill-rule="evenodd" clip-rule="evenodd" d="M32 16.5C32 7.65699 24.843 0.5 16 0.5C7.15699 0.5 0 7.65699 0 16.5C0 25.343 7.15699 32.5 16 32.5C24.843 32.5 32 25.343 32 16.5ZM7.26022 16.328C11.9054 14.2978 15.0366 12.9559 16.5849 12.3022C21.0237 10.4785 21.9527 10.1344 22.5376 10.1344C22.6753 10.1344 22.9849 10.1688 23.157 10.3065C23.329 10.4441 23.3634 10.6161 23.3979 10.7538C23.4323 10.8914 23.4323 11.1667 23.4323 11.3731C23.1914 13.9194 22.1247 20.0441 21.6086 22.9C21.4022 24.1043 20.9548 24.4828 20.5075 24.5172C19.5785 24.6204 18.8903 23.9323 17.9957 23.3129C16.5849 22.4183 15.7935 21.8333 14.4172 20.9387C12.8344 19.872 13.8667 19.3215 14.7613 18.3925C15.0022 18.1516 19.0968 14.4011 19.1656 14.057C19.1656 14.0226 19.2 13.8849 19.0968 13.7817C18.9935 13.7129 18.8559 13.7473 18.7527 13.7473C18.6151 13.7817 16.3785 15.2613 12.0086 18.2204C11.3548 18.6677 10.8043 18.8742 10.2882 18.8742C9.70323 18.8398 8.60215 18.5301 7.77634 18.2548C6.77849 17.9452 5.9871 17.7731 6.05591 17.2226C6.09032 16.9473 6.50323 16.6376 7.26022 16.328Z" fill="#006140"/>
</g>
<defs>
<clipPath id="clip0_9747_22828">
<rect width="32" height="32" fill="white" transform="translate(0 0.5)"/>
</clipPath>
</defs>
</svg>
