<svg width="32" height="33" viewBox="0 0 32 33" fill="none" xmlns="http://www.w3.org/2000/svg">
<path fill-rule="evenodd" clip-rule="evenodd" d="M2.2069 2.7069C0 4.99867 0 8.64854 0 15.8634V17.1366C0 24.3515 0 28.0013 2.2069 30.2082C4.49867 32.5 8.14854 32.5 15.3634 32.5H16.6366C23.8515 32.5 27.5013 32.5 29.7082 30.2082C32 28.0013 32 24.3515 32 17.1366V15.8634C32 8.64854 32 4.99867 29.7082 2.7069C27.5013 0.5 23.8515 0.5 16.6366 0.5H15.3634C8.14854 0.5 4.49867 0.5 2.2069 2.7069ZM5.43236 10.2613C5.60212 18.4947 9.76127 23.5027 16.9761 23.5027H17.4005V18.7493C20.1167 19.004 22.1538 20.9562 22.9178 23.5027H26.7374C25.7188 19.7679 22.9178 17.6459 21.2202 16.882C22.9178 15.8634 25.3793 13.4867 25.8886 10.2613H22.4934C21.7294 12.8926 19.5225 15.2692 17.4005 15.5239V10.2613H14.0053V19.4284C11.8833 18.9191 9.16711 16.2878 9.08223 10.2613H5.43236Z" fill="#006140"/>
</svg>
